<svg xmlns="http://www.w3.org/2000/svg" width="24" height="24" viewBox="0 0 24 24" fill="none" class=""><path fill-rule="evenodd" clip-rule="evenodd" d="M3 4.802v8.452a7 7 0 003.117 5.824l5.328 3.552a1 1 0 001.11 0l5.328-3.552A7 7 0 0021 13.254V4.802a1 1 0 00-.783-.976l-2.837-.63a9 9 0 01-1.703-.562l-3.27-1.453a1 1 0 00-.813 0l-3.27 1.453a9 9 0 01-1.704.562l-2.837.63A1 1 0 003 4.802zM12.2 18c-2.275 0-4.875-1.12-4.875-4.424 0-3.304 2.302-6.74 4.55-8.576 0 0 1.3 2.854 1.95 4.122.65-.317 1.625-1.445 1.625-1.445.758.688 1.95 3.067 1.95 5.899 0 2.831-2.925 4.424-5.2 4.424zm-1.625-3.135c0-1.224.58-2.141 1.742-3.365 0 0 .208 1.3 1.183 2.6.975 1.3-.313 2.6-1.183 2.6-.871 0-1.742-.612-1.742-1.835z" fill="#fff"/></svg>