<svg xmlns="http://www.w3.org/2000/svg" width="24" height="24" viewBox="0 0 24 24" fill="none" class=""><path fill-rule="evenodd" clip-rule="evenodd" d="M10.769 2.734c-.205.16-.407.427-.81.958-.193.254-.289.38-.395.485a2 2 0 01-1.373.569c-.15.001-.307-.02-.622-.064-.661-.09-.992-.136-1.25-.104a2 2 0 00-1.742 1.74c-.031.26.014.59.105 1.251.043.315.065.473.063.622a2 2 0 01-.569 1.373c-.104.107-.23.203-.484.395-.532.403-.798.605-.958.81a2 2 0 000 2.463c.16.205.426.406.958.81.254.192.38.288.484.395a2 2 0 01.57 1.373c.001.149-.02.306-.064.622-.09.66-.136.991-.105 1.25a2 2 0 001.741 1.741c.259.032.59-.014 1.25-.105.316-.043.474-.065.623-.063a2 2 0 011.373.569c.106.104.202.23.395.484.403.532.605.798.81.958a2 2 0 002.462 0c.205-.16.407-.426.81-.958.192-.253.289-.38.395-.484a2 2 0 011.373-.569c.15-.002.307.02.622.063.662.091.992.137 1.25.105a2 2 0 001.742-1.741c.031-.258-.014-.59-.105-1.25-.043-.316-.065-.473-.063-.622a2 2 0 01.569-1.373c.103-.107.23-.203.484-.395.532-.404.798-.605.958-.81a2 2 0 000-2.463c-.16-.205-.426-.407-.958-.81-.254-.192-.38-.288-.485-.395a2 2 0 01-.568-1.373c-.002-.149.02-.307.063-.622.09-.661.136-.992.105-1.25a2 2 0 00-1.741-1.741c-.259-.032-.59.013-1.25.104-.316.044-.474.065-.623.064a2 2 0 01-1.373-.57c-.106-.103-.203-.23-.395-.484-.403-.531-.605-.797-.81-.958a2 2 0 00-2.462 0zm5.594 6.61a.5.5 0 00-.726-.687l-5.302 5.613-1.97-2.111a.5.5 0 00-.73.682l2.333 2.5a.5.5 0 00.729.002l5.666-6z" fill="#fff"/></svg>