<svg xmlns="http://www.w3.org/2000/svg" width="24" height="24" viewBox="0 0 24 24" fill="none" class=""><path fill-rule="evenodd" clip-rule="evenodd" d="M17 14a2 2 0 00-2 2v3a2 2 0 002 2h3a2 2 0 002-2v-3a2 2 0 00-2-2h-3zm1.952 1a.5.5 0 00-1 0v.075c-.27.082-.493.23-.658.444-.238.31-.294.683-.294.981 0 .448.235.763.492.978.233.194.528.341.76.457l.024.012c.265.132.457.232.591.343.118.098.133.158.133.21 0 .197-.041.314-.09.375-.032.04-.12.125-.41.125-.286 0-.422-.086-.48-.134a.313.313 0 01-.06-.065l-.004-.006a.5.5 0 00-.92.39L17.5 19l-.464.186v.002l.002.003.003.006.006.015a.924.924 0 00.08.143c.055.081.136.181.253.28.155.128.359.241.62.307V20a.5.5 0 001 0v-.061c.282-.076.517-.222.69-.44.252-.313.31-.696.31-.999 0-.448-.235-.763-.492-.978-.233-.194-.528-.341-.76-.457l-.024-.012c-.265-.132-.457-.232-.591-.343-.118-.098-.133-.158-.133-.21 0-.192.04-.31.087-.371.032-.04.112-.122.378-.129h.035c.286 0 .422.086.48.134a.313.313 0 01.06.065l.004.006a.5.5 0 00.92-.39l-.457.182.457-.183v-.002l-.002-.003-.003-.006-.006-.015a.924.924 0 00-.08-.143 1.314 1.314 0 00-.253-.28 1.555 1.555 0 00-.668-.318V15z" fill="#fff"/><path d="M17 4.5a.5.5 0 01.5-.5h1a.5.5 0 01.5.5v1h-2v-1zM5 4.5a.5.5 0 01.5-.5h1a.5.5 0 01.5.5v1H5v-1z" fill="#fff"/><path fill-rule="evenodd" clip-rule="evenodd" d="M10.5 2A1.5 1.5 0 009 3.5V5H5v.5A2.5 2.5 0 012.5 8H2V18h.5A2.5 2.5 0 015 20.5v.5h9.764A2.989 2.989 0 0114 19v-3a3 3 0 013-3h3c.768 0 1.47.289 2 .764V8.2 8h-.5A2.5 2.5 0 0119 5.5V5h-4V3.5A1.5 1.5 0 0013.5 2h-3zM20 5.02v.48A1.5 1.5 0 0021.5 7h.48c-.023-.392-.077-.67-.198-.908a2 2 0 00-.874-.874c-.238-.121-.516-.175-.908-.199zM4 20.98v-.48A1.5 1.5 0 002.5 19h-.48c.023.392.077.67.198.908a2 2 0 00.874.874c.238.121.516.175.908.199zM2.02 7h.48A1.5 1.5 0 004 5.5v-.48c-.392.023-.67.077-.908.198a2 2 0 00-.874.874c-.121.238-.175.516-.199.908zM14 5V3.5a.5.5 0 00-.5-.5h-3a.5.5 0 00-.5.5V5h4z" fill="#fff"/></svg>