<svg xmlns="http://www.w3.org/2000/svg" width="24" height="24" viewBox="0 0 24 24" fill="none" class=""><path fill-rule="evenodd" clip-rule="evenodd" d="M2 8.4c0-2.24 0-3.36.436-4.216a4 4 0 011.748-1.748C5.04 2 6.16 2 8.4 2h7.2c2.24 0 3.36 0 4.216.436a4 4 0 011.748 1.748C22 5.04 22 6.16 22 8.4v7.2c0 2.24 0 3.36-.436 4.216a4 4 0 01-1.748 1.748c-.244.124-.51.213-.816.277V22a1 1 0 01-1 1h-1a1 1 0 01-1-1H8a1 1 0 01-1 1H6a1 1 0 01-1-1v-.16a3.198 3.198 0 01-.816-.276 4 4 0 01-1.748-1.748C2 18.96 2 17.84 2 15.6V8.4zM15.8 6H8.2c-.577 0-.949 0-1.232.024-.272.022-.373.06-.422.085a1 1 0 00-.437.437c-.025.05-.063.15-.085.422C6 7.25 6 7.623 6 8.2v7.6c0 .577 0 .949.024 1.232.022.272.06.372.085.422a1 1 0 00.437.437c.05.025.15.063.422.085C7.25 18 7.623 18 8.2 18h7.6c.577 0 .949 0 1.232-.024.272-.022.372-.06.422-.085a1 1 0 00.437-.437c.025-.05.063-.15.085-.422C18 16.75 18 16.377 18 15.8V8.2c0-.577 0-.949-.024-1.232-.022-.272-.06-.373-.085-.422a1 1 0 00-.437-.437c-.05-.025-.15-.063-.422-.085C16.75 6 16.377 6 15.8 6zm3.2 8.007V9.993c.164-.008.28-.027.383-.07a1 1 0 00.54-.54C20 9.199 20 8.966 20 8.5s0-.699-.076-.883a1 1 0 00-.541-.54 1.17 1.17 0 00-.402-.071c-.024-.395-.077-.675-.199-.914a2 2 0 00-.874-.874C17.48 5 16.92 5 15.8 5H8.2c-1.12 0-1.68 0-2.108.218a2 2 0 00-.874.874C5 6.52 5 7.08 5 8.2v7.6c0 1.12 0 1.68.218 2.108a2 2 0 00.874.874C6.52 19 7.08 19 8.2 19h7.6c1.12 0 1.68 0 2.108-.218a2 2 0 00.874-.874c.122-.239.175-.518.2-.914.173-.008.295-.026.4-.07a1 1 0 00.542-.541c.076-.184.076-.417.076-.883s0-.699-.076-.883a1 1 0 00-.541-.54 1.135 1.135 0 00-.383-.07zM8.646 9.354a.5.5 0 11.708-.708l.908.909C10.752 9.205 11.352 9 12 9c.648 0 1.248.205 1.738.555l.908-.909a.5.5 0 01.708.708l-.909.908c.35.49.555 1.09.555 1.738 0 .648-.205 1.248-.555 1.738l.909.908a.5.5 0 01-.707.708l-.909-.909c-.49.35-1.09.555-1.738.555a2.987 2.987 0 01-1.738-.555l-.908.909a.5.5 0 01-.708-.708l.909-.908A2.986 2.986 0 019 12c0-.648.205-1.248.555-1.738l-.909-.908zM14 12a2 2 0 11-4 0 2 2 0 014 0z" fill="#fff"/></svg>