<svg xmlns="http://www.w3.org/2000/svg" width="40" height="41" viewBox="0 0 40 41" fill="none">
<circle cx="20.002" cy="20" r="20" fill="black"></circle>
<path d="M19.4756 11C17.2422 11 15.1003 11.8872 13.5211 13.4665C11.9418 15.0457 11.0546 17.1876 11.0546 19.4211V21.4211C10.737 21.6977 10.4797 22.0367 10.2987 22.417C10.1176 22.7972 10.0166 23.2107 10.002 23.6316C10.0259 24.2419 10.2337 24.8308 10.5981 25.3211C10.9625 25.8113 11.4665 26.18 12.0441 26.3789C13.4125 29.6526 16.1598 32.0526 19.4756 32.0526H22.6335V29.9474H19.4756C17.0967 29.9474 14.9388 28.1579 13.8546 25.3263L13.6335 24.7474L13.0125 24.6842C12.7596 24.6485 12.5283 24.522 12.3617 24.3283C12.1952 24.1346 12.1047 23.887 12.1072 23.6316C12.1083 23.4479 12.1575 23.2677 12.2498 23.1089C12.3422 22.95 12.4744 22.8182 12.6335 22.7263L13.1598 22.4211V20.4737C13.1598 20.1945 13.2708 19.9268 13.4682 19.7294C13.6656 19.532 13.9333 19.4211 14.2125 19.4211H24.7388C25.018 19.4211 25.2857 19.532 25.4831 19.7294C25.6805 19.9268 25.7914 20.1945 25.7914 20.4737V25.7368H21.4862C21.3906 25.4689 21.2244 25.2317 21.0052 25.0504C20.7859 24.8691 20.5218 24.7504 20.2406 24.7068C19.9595 24.6633 19.6718 24.6965 19.408 24.803C19.1441 24.9095 18.914 25.0853 18.7419 25.3118C18.5697 25.5383 18.462 25.8071 18.43 26.0898C18.398 26.3725 18.4431 26.6586 18.5603 26.9178C18.6775 27.177 18.8626 27.3998 19.096 27.5625C19.3294 27.7252 19.6024 27.8218 19.8862 27.8421H27.8967C28.455 27.8421 28.9905 27.6203 29.3853 27.2255C29.7801 26.8307 30.002 26.2952 30.002 25.7368V23.6316C30.002 23.0732 29.7801 22.5377 29.3853 22.1429C28.9905 21.7481 28.455 21.5263 27.8967 21.5263V19.4211C27.8967 17.1876 27.0095 15.0457 25.4302 13.4665C23.851 11.8872 21.709 11 19.4756 11Z" fill="white"></path>
<circle cx="33.5" cy="34.5" r="5.5" fill="#04CE91" stroke="white" stroke-width="2"></circle>
</svg>