<svg xmlns="http://www.w3.org/2000/svg" width="20" height="20" viewBox="0 0 20 20" fill="none">
    <path d="M2.49935 7.49935C2.72036 7.49935 2.93232 7.41155 3.0886 7.25527C3.24488 7.09899 3.33268 6.88703 3.33268 6.66602V4.16602C3.33268 3.945 3.42048 3.73304 3.57676 3.57676C3.73304 3.42048 3.945 3.33268 4.16602 3.33268H6.66602C6.88703 3.33268 7.09899 3.24488 7.25527 3.0886C7.41155 2.93232 7.49935 2.72036 7.49935 2.49935C7.49935 2.27834 7.41155 2.06637 7.25527 1.91009C7.09899 1.75381 6.88703 1.66602 6.66602 1.66602H4.16602C3.50297 1.66602 2.86709 1.92941 2.39825 2.39825C1.92941 2.86709 1.66602 3.50297 1.66602 4.16602V6.66602C1.66602 6.88703 1.75381 7.09899 1.91009 7.25527C2.06637 7.41155 2.27834 7.49935 2.49935 7.49935ZM6.66602 16.666H4.16602C3.945 16.666 3.73304 16.5782 3.57676 16.4219C3.42048 16.2657 3.33268 16.0537 3.33268 15.8327V13.3327C3.33268 13.1117 3.24488 12.8997 3.0886 12.7434C2.93232 12.5871 2.72036 12.4993 2.49935 12.4993C2.27834 12.4993 2.06637 12.5871 1.91009 12.7434C1.75381 12.8997 1.66602 13.1117 1.66602 13.3327V15.8327C1.66602 16.4957 1.92941 17.1316 2.39825 17.6004C2.86709 18.0693 3.50297 18.3327 4.16602 18.3327H6.66602C6.88703 18.3327 7.09899 18.2449 7.25527 18.0886C7.41155 17.9323 7.49935 17.7204 7.49935 17.4993C7.49935 17.2783 7.41155 17.0664 7.25527 16.9101C7.09899 16.7538 6.88703 16.666 6.66602 16.666ZM9.99935 6.66602C9.34008 6.66602 8.69561 6.86151 8.14745 7.22778C7.59928 7.59406 7.17204 8.11465 6.91975 8.72374C6.66746 9.33282 6.60145 10.003 6.73006 10.6497C6.85868 11.2963 7.17615 11.8902 7.64233 12.3564C8.1085 12.8225 8.70244 13.14 9.34905 13.2686C9.99565 13.3973 10.6659 13.3312 11.275 13.0789C11.884 12.8267 12.4046 12.3994 12.7709 11.8512C13.1372 11.3031 13.3327 10.6586 13.3327 9.99935C13.3327 9.11529 12.9815 8.26745 12.3564 7.64233C11.7312 7.01721 10.8834 6.66602 9.99935 6.66602ZM9.99935 11.666C9.66971 11.666 9.34748 11.5683 9.0734 11.3851C8.79932 11.202 8.5857 10.9417 8.45955 10.6372C8.3334 10.3326 8.3004 9.9975 8.36471 9.6742C8.42902 9.3509 8.58775 9.05393 8.82084 8.82084C9.05393 8.58775 9.3509 8.42902 9.6742 8.36471C9.9975 8.3004 10.3326 8.3334 10.6372 8.45955C10.9417 8.5857 11.202 8.79932 11.3851 9.0734C11.5683 9.34748 11.666 9.66971 11.666 9.99935C11.666 10.4414 11.4904 10.8653 11.1779 11.1779C10.8653 11.4904 10.4414 11.666 9.99935 11.666ZM15.8327 1.66602H13.3327C13.1117 1.66602 12.8997 1.75381 12.7434 1.91009C12.5871 2.06637 12.4993 2.27834 12.4993 2.49935C12.4993 2.72036 12.5871 2.93232 12.7434 3.0886C12.8997 3.24488 13.1117 3.33268 13.3327 3.33268H15.8327C16.0537 3.33268 16.2657 3.42048 16.4219 3.57676C16.5782 3.73304 16.666 3.945 16.666 4.16602V6.66602C16.666 6.88703 16.7538 7.09899 16.9101 7.25527C17.0664 7.41155 17.2783 7.49935 17.4993 7.49935C17.7204 7.49935 17.9323 7.41155 18.0886 7.25527C18.2449 7.09899 18.3327 6.88703 18.3327 6.66602V4.16602C18.3327 3.50297 18.0693 2.86709 17.6004 2.39825C17.1316 1.92941 16.4957 1.66602 15.8327 1.66602ZM17.4993 12.4993C17.2783 12.4993 17.0664 12.5871 16.9101 12.7434C16.7538 12.8997 16.666 13.1117 16.666 13.3327V15.8327C16.666 16.0537 16.5782 16.2657 16.4219 16.4219C16.2657 16.5782 16.0537 16.666 15.8327 16.666H13.3327C13.1117 16.666 12.8997 16.7538 12.7434 16.9101C12.5871 17.0664 12.4993 17.2783 12.4993 17.4993C12.4993 17.7204 12.5871 17.9323 12.7434 18.0886C12.8997 18.2449 13.1117 18.3327 13.3327 18.3327H15.8327C16.4957 18.3327 17.1316 18.0693 17.6004 17.6004C18.0693 17.1316 18.3327 16.4957 18.3327 15.8327V13.3327C18.3327 13.1117 18.2449 12.8997 18.0886 12.7434C17.9323 12.5871 17.7204 12.4993 17.4993 12.4993Z" fill="#121214"/>
    <path d="M10.0003 6.66699C9.34106 6.66699 8.69659 6.86249 8.14843 7.22876C7.60026 7.59503 7.17302 8.11563 6.92073 8.72471C6.66844 9.3338 6.60243 10.004 6.73104 10.6506C6.85966 11.2972 7.17713 11.8912 7.6433 12.3573C8.10948 12.8235 8.70342 13.141 9.35003 13.2696C9.99663 13.3982 10.6669 13.3322 11.2759 13.0799C11.885 12.8276 12.4056 12.4004 12.7719 11.8522C13.1382 11.3041 13.3337 10.6596 13.3337 10.0003C13.3337 9.11627 12.9825 8.26842 12.3573 7.6433C11.7322 7.01818 10.8844 6.66699 10.0003 6.66699ZM10.0003 11.667C9.67069 11.667 9.34846 11.5692 9.07438 11.3861C8.8003 11.203 8.58667 10.9427 8.46053 10.6381C8.33438 10.3336 8.30138 9.99848 8.36569 9.67517C8.42999 9.35187 8.58873 9.0549 8.82182 8.82181C9.0549 8.58873 9.35188 8.42999 9.67518 8.36568C9.99848 8.30137 10.3336 8.33438 10.6381 8.46053C10.9427 8.58667 11.203 8.80029 11.3861 9.07437C11.5692 9.34846 11.667 9.67069 11.667 10.0003C11.667 10.4424 11.4914 10.8663 11.1788 11.1788C10.8663 11.4914 10.4424 11.667 10.0003 11.667Z" fill="#121214"/>
</svg>