<svg xmlns="http://www.w3.org/2000/svg" width="16" height="16" viewBox="0 0 16 16" fill="none">
    <path d="M9.87736 8.18667C10.2993 7.73349 10.5371 7.13918 10.544 6.52C10.544 5.85165 10.2785 5.21068 9.80593 4.73809C9.33334 4.2655 8.69237 4 8.02402 4C7.35568 4 6.71471 4.2655 6.24211 4.73809C5.76952 5.21068 5.50402 5.85165 5.50402 6.52C5.51098 7.13918 5.74871 7.73349 6.17069 8.18667C5.58313 8.47925 5.0775 8.91329 4.6993 9.44976C4.3211 9.98622 4.08217 10.6083 4.00402 11.26C3.98457 11.4368 4.03616 11.6141 4.14743 11.7529C4.2587 11.8917 4.42055 11.9806 4.59736 12C4.77417 12.0194 4.95146 11.9679 5.09024 11.8566C5.22902 11.7453 5.31791 11.5835 5.33736 11.4067C5.41691 10.7608 5.72992 10.1662 6.21741 9.7351C6.70491 9.30397 7.33323 9.06599 7.98402 9.06599C8.63481 9.06599 9.26314 9.30397 9.75063 9.7351C10.2381 10.1662 10.5511 10.7608 10.6307 11.4067C10.6492 11.5776 10.7331 11.7348 10.8648 11.8453C10.9965 11.9559 11.1658 12.0113 11.3374 12H11.4107C11.5854 11.9799 11.7452 11.8915 11.8551 11.7542C11.965 11.6168 12.0161 11.4416 11.9974 11.2667C11.925 10.6184 11.6936 9.99802 11.3238 9.4607C10.9539 8.92337 10.4571 8.48573 9.87736 8.18667ZM8.00402 7.70667C7.76932 7.70667 7.53989 7.63707 7.34475 7.50668C7.1496 7.37628 6.9975 7.19095 6.90769 6.97412C6.81787 6.75728 6.79437 6.51868 6.84016 6.28849C6.88595 6.0583 6.99897 5.84686 7.16492 5.6809C7.33088 5.51494 7.54233 5.40192 7.77252 5.35614C8.00271 5.31035 8.24131 5.33385 8.45814 5.42366C8.67498 5.51348 8.86031 5.66558 8.9907 5.86072C9.12109 6.05587 9.19069 6.2853 9.19069 6.52C9.19069 6.83472 9.06567 7.13656 8.84312 7.3591C8.62058 7.58164 8.31875 7.70667 8.00402 7.70667Z" fill="#F7A600"/>
    <rect x="2.26461" y="2.2651" width="11.47" height="11.47" rx="0.935" stroke="#121214" stroke-width="1.33"/>
</svg>