<svg xmlns="http://www.w3.org/2000/svg" width="18" height="18" viewBox="0 0 24 24" fill="none">
  <path d="M4 7.5C4 6.11929 5.11929 5 6.5 5H18.5C19.3284 5 20 5.67157 20 6.5V8H16.75C15.2312 8 14 9.23122 14 10.75V13.25C14 14.7688 15.2312 16 16.75 16H20V17.5C20 18.3284 19.3284 19 18.5 19H6.5C5.11929 19 4 17.8807 4 16.5V7.5Z" stroke="#F7A600" stroke-width="1.8" stroke-linejoin="round"/>
  <path d="M20 9.5H16.75C16.0596 9.5 15.5 10.0596 15.5 10.75V13.25C15.5 13.9404 16.0596 14.5 16.75 14.5H20V9.5Z" stroke="#F7A600" stroke-width="1.8" stroke-linejoin="round"/>
  <circle cx="17.5" cy="12" r="1" fill="#F7A600"/>
  <path d="M7 8H12" stroke="#F7A600" stroke-width="1.8" stroke-linecap="round"/>
</svg>
