<svg xmlns="http://www.w3.org/2000/svg" width="120" height="90" viewBox="0 0 120 90" fill="none">
    <rect width="23" height="74" rx="1" transform="matrix(-1 0 0 1 71 8)" fill="url(#paint0_linear_440_22762)"/>
    <rect x="35" y="40" width="4" height="19" rx="1" transform="rotate(180 35 40)" fill="url(#paint1_linear_440_22762)"/>
    <rect width="4" height="15" rx="1" transform="matrix(-1 0 0 1 89 50)" fill="url(#paint2_linear_440_22762)"/>
    <g filter="url(#filter0_i_440_22762)">
        <path d="M46.5469 30L81 37.7331C80.8167 41.5818 79.8498 47.781 77.5311 53.5509C75.4026 58.8476 72.1351 63.7826 67.2891 66.2052C63.7084 67.9952 59.524 68.7829 55.3359 68.9601C47.6813 69.284 40.0145 67.5684 36 66.2052L46.5469 30Z" fill="white"/>
    </g>
    <path d="M55.3359 68.9601C59.524 68.7829 63.7084 67.9952 67.2891 66.2052C72.1351 63.7826 75.4026 58.8476 77.5311 53.5509M55.3359 68.9601C47.6813 69.284 40.0145 67.5684 36 66.2052L46.5469 30L81 37.7331C80.8167 41.5818 79.8498 47.781 77.5311 53.5509M55.3359 68.9601L56.0719 68.3536C59.7451 65.3262 62.6292 61.4529 64.4766 57.066V57.066V57.066C69.0438 57.066 73.5864 55.853 77.5311 53.5509V53.5509" stroke="#595D61"/>
    <line x1="49.103" y1="42.5107" x2="68.103" y2="46.5107" stroke="#595D61"/>
    <line x1="48.103" y1="47.5107" x2="67.103" y2="51.5107" stroke="#595D61"/>
    <defs>
        <filter id="filter0_i_440_22762" x="35.3857" y="29.4093" width="46.1338" height="40.0907" filterUnits="userSpaceOnUse" color-interpolation-filters="sRGB">
            <feFlood flood-opacity="0" result="BackgroundImageFix"/>
            <feBlend mode="normal" in="SourceGraphic" in2="BackgroundImageFix" result="shape"/>
            <feColorMatrix in="SourceAlpha" type="matrix" values="0 0 0 0 0 0 0 0 0 0 0 0 0 0 0 0 0 0 127 0" result="hardAlpha"/>
            <feOffset dx="2" dy="3"/>
            <feComposite in2="hardAlpha" operator="arithmetic" k2="-1" k3="1"/>
            <feColorMatrix type="matrix" values="0 0 0 0 0.879167 0 0 0 0 0.879167 0 0 0 0 0.879167 0 0 0 1 0"/>
            <feBlend mode="normal" in2="shape" result="effect1_innerShadow_440_22762"/>
        </filter>
        <linearGradient id="paint0_linear_440_22762" x1="7.82979" y1="158.355" x2="8.80749" y2="3.73347" gradientUnits="userSpaceOnUse">
            <stop offset="0.190594" stop-color="#F7A600"/>
            <stop offset="1" stop-color="#F7A600" stop-opacity="0"/>
        </linearGradient>
        <linearGradient id="paint1_linear_440_22762" x1="36.3617" y1="80.6587" x2="36.7323" y2="40.9605" gradientUnits="userSpaceOnUse">
            <stop offset="0.190594" stop-color="#F7A600"/>
            <stop offset="1" stop-color="#F7A600" stop-opacity="0"/>
        </linearGradient>
        <linearGradient id="paint2_linear_440_22762" x1="1.3617" y1="32.099" x2="1.59269" y2="0.757234" gradientUnits="userSpaceOnUse">
            <stop offset="0.190594" stop-color="#F7A600"/>
            <stop offset="1" stop-color="#F7A600" stop-opacity="0"/>
        </linearGradient>
    </defs>
</svg>