<svg xmlns="http://www.w3.org/2000/svg" width="16" height="16" viewBox="0 0 16 16" fill="none">
    <rect x="2.26461" y="2.2651" width="11.47" height="11.47" rx="0.935" stroke="#121214" stroke-width="1.33"/>
    <path d="M6.27396 9.3397H5.15647L5.00271 10H4L5.19329 6H6.26313L7.45642 10H6.42989L6.27396 9.3397ZM6.06822 8.47476L5.71738 7.03683L5.36871 8.47476H6.06822Z" fill="#F7A600"/>
    <path d="M7.76827 6H9.39903C9.7542 6 10.0199 6.10641 10.196 6.31924C10.3736 6.53206 10.4624 6.83492 10.4624 7.22783C10.4624 7.63165 10.3656 7.94725 10.1722 8.17462C9.98015 8.402 9.68634 8.51569 9.29074 8.51569H8.75365V10H7.76827V6ZM8.75365 7.70532H8.99404C9.18318 7.70532 9.31601 7.66439 9.39253 7.58254C9.46905 7.49886 9.50731 7.39245 9.50731 7.2633C9.50731 7.13779 9.4741 7.03138 9.40769 6.94407C9.34127 6.85675 9.21639 6.8131 9.03303 6.8131H8.75365V7.70532Z" fill="#F7A600"/>
    <path d="M11.0168 6H12V10H11.0168V6Z" fill="#F7A600"/>
</svg>