<svg xmlns="http://www.w3.org/2000/svg" width="25" height="25" viewBox="0 0 25 25" fill="none">
    <path fill-rule="evenodd" clip-rule="evenodd" d="M0 12.5C0 5.59644 5.59644 0 12.5 0C19.4036 0 25 5.59644 25 12.5C25 19.4036 19.4036 25 12.5 25C10.3058 25 8.24129 24.4339 6.4471 23.4392C6.33733 23.3783 6.2305 23.3757 6.15434 23.4026L3.2211 24.4391C1.4239 25.0741 -0.307293 23.343 0.327763 21.5457L1.40716 18.4911C1.43306 18.4178 1.43187 18.3155 1.37679 18.2084C0.49648 16.4962 0 14.5548 0 12.5ZM6.74396 14.0114C7.5467 14.0114 8.19745 13.3607 8.19745 12.5579C8.19745 11.7552 7.5467 11.1044 6.74396 11.1044C5.94122 11.1044 5.29047 11.7552 5.29047 12.5579C5.29047 13.3607 5.94122 14.0114 6.74396 14.0114ZM14.0114 12.5579C14.0114 13.3607 13.3607 14.0114 12.5579 14.0114C11.7552 14.0114 11.1044 13.3607 11.1044 12.5579C11.1044 11.7552 11.7552 11.1044 12.5579 11.1044C13.3607 11.1044 14.0114 11.7552 14.0114 12.5579ZM18.3719 14.0114C19.1746 14.0114 19.8254 13.3607 19.8254 12.5579C19.8254 11.7552 19.1746 11.1044 18.3719 11.1044C17.5691 11.1044 16.9184 11.7552 16.9184 12.5579C16.9184 13.3607 17.5691 14.0114 18.3719 14.0114Z" fill="white"/>
</svg>