<svg width="17" height="16" fill="none" xmlns="http://www.w3.org/2000/svg" class="lttPiZXhr8VGF2ee8EN6"><path fill-rule="evenodd" clip-rule="evenodd" d="M2.5 9.333c.368 0 .666.299.666.667v2.667a.667.667 0 0 0 .667.666h9.333a.667.667 0 0 0 .667-.666V10a.667.667 0 0 1 1.333 0v2.667a2 2 0 0 1-2 2H3.833a2 2 0 0 1-2-2V10c0-.368.298-.667.667-.667Z" fill="#fff"></path><path fill-rule="evenodd" clip-rule="evenodd" d="M4.695 6.195c.26-.26.683-.26.943 0L8.5 9.057l2.862-2.862a.667.667 0 1 1 .943.943L8.97 10.471a.667.667 0 0 1-.942 0L4.695 7.138a.667.667 0 0 1 0-.943Z" fill="#F7A600"></path><path fill-rule="evenodd" clip-rule="evenodd" d="M8.5 1.333c.368 0 .666.299.666.667v8a.667.667 0 1 1-1.333 0V2c0-.368.298-.667.667-.667Z" fill="#F7A600"></path></svg>