<svg width="28" height="28" viewBox="0 0 28 28" fill="none" xmlns="http://www.w3.org/2000/svg">
    <path d="M22.7497 14.5827C22.7497 12.9727 24.0563 11.666 25.6663 11.666V10.4993C25.6663 5.83268 24.4997 4.66602 19.833 4.66602H8.16634C3.49967 4.66602 2.33301 5.83268 2.33301 10.4993V11.0827C3.94301 11.0827 5.24967 12.3893 5.24967 13.9993C5.24967 15.6093 3.94301 16.916 2.33301 16.916V17.4993C2.33301 22.166 3.49967 23.3327 8.16634 23.3327H19.833C24.4997 23.3327 25.6663 22.166 25.6663 17.4993C24.0563 17.4993 22.7497 16.1927 22.7497 14.5827Z" stroke="#191D31" stroke-width="1.75" stroke-linecap="round" stroke-linejoin="round"></path>
    <path d="M10.5 17.209L17.5 10.209" stroke="#191D31" stroke-width="1.75" stroke-linecap="round" stroke-linejoin="round"></path>
    <path d="M17.4939 17.2083H17.5044" stroke="#191D31" stroke-width="2.33333" stroke-linecap="round" stroke-linejoin="round"></path>
    <path d="M10.4939 10.7923H10.5044" stroke="#191D31" stroke-width="2.33333" stroke-linecap="round" stroke-linejoin="round"></path>
</svg>