<svg width="20" height="20" viewBox="0 0 20 20" fill="none" xmlns="http://www.w3.org/2000/svg">
    <path d="M7.08329 15.8083H6.66663C3.33329 15.8083 1.66663 14.9749 1.66663 10.8083V6.6416C1.66663 3.30827 3.33329 1.6416 6.66663 1.6416H13.3333C16.6666 1.6416 18.3333 3.30827 18.3333 6.6416V10.8083C18.3333 14.1416 16.6666 15.8083 13.3333 15.8083H12.9166C12.6583 15.8083 12.4083 15.9333 12.25 16.1416L11 17.8083C10.45 18.5416 9.54995 18.5416 8.99995 17.8083L7.74995 16.1416C7.61662 15.9583 7.31663 15.8083 7.08329 15.8083Z" stroke="#121214" stroke-width="1.25" stroke-miterlimit="10" stroke-linecap="round" stroke-linejoin="round"></path>
    <path d="M6.66667 7.25L5 8.91667L6.66667 10.5833" stroke="#F7A600" stroke-width="1.25" stroke-miterlimit="10" stroke-linecap="round" stroke-linejoin="round"></path>
    <path d="M13.3334 7.25L15 8.91667L13.3334 10.5833" stroke="#F7A600" stroke-width="1.25" stroke-miterlimit="10" stroke-linecap="round" stroke-linejoin="round"></path>
    <path d="M10.8333 6.9751L9.16663 10.8585" stroke="#F7A600" stroke-width="1.25" stroke-miterlimit="10" stroke-linecap="round" stroke-linejoin="round"></path>
</svg>