<svg xmlns="http://www.w3.org/2000/svg" width="342" height="160" viewBox="0 0 342 160" fill="none">
  <rect width="342" height="160" rx="18" fill="#DADDEA"/>
  <path d="M16 16H34V20H20V34H16V16Z" fill="#FFF"/>
  <path d="M326 16H308V20H322V34H326V16Z" fill="#FFF"/>
  <path d="M16 144H34V140H20V126H16V144Z" fill="#FFF"/>
  <path d="M326 144H308V140H322V126H326V144Z" fill="#FFF"/>
  <rect x="92" y="42" width="154" height="76" rx="9" fill="#F6F7FD" stroke="#32344D" stroke-width="4"/>
  <circle cx="130" cy="69" r="13" fill="#27283E"/>
  <rect x="116" y="84" width="28" height="18" rx="9" fill="#27283E"/>
  <rect x="165" y="60" width="55" height="8" rx="4" fill="#27283E"/>
  <rect x="165" y="77" width="42" height="8" rx="4" fill="#27283E" opacity=".72"/>
  <circle cx="170" cy="95" r="22" fill="#21C15F"/>
  <path d="M159 95L167 103L182 87" stroke="#FFF" stroke-width="8" stroke-linecap="round" stroke-linejoin="round"/>
</svg>
