<svg xmlns="http://www.w3.org/2000/svg" viewBox="0 0 96 96" fill="none">
  <rect width="96" height="96" rx="48" fill="#EAF2FF"/>
  <circle cx="48" cy="38" r="18" fill="#E4BC96"/>
  <path d="M26 78c4-13 13-20 22-20s18 7 22 20H26Z" fill="#2D4F88"/>
  <path d="M31 33c0-13 8-21 17-21 10 0 17 8 17 21 0 3-1 6-2 9-2-7-7-12-15-12-8 0-13 5-15 12-1-3-2-6-2-9Z" fill="#1E2A3A"/>
  <path d="M36 20c5-4 10-6 16-6 5 0 10 2 15 6-4 1-8 2-12 2-8 0-14-1-19-2Z" fill="#243447"/>
  <circle cx="42" cy="39" r="2" fill="#243447"/>
  <circle cx="54" cy="39" r="2" fill="#243447"/>
  <path d="M43 47c2 2 8 2 10 0" stroke="#B86B5E" stroke-linecap="round"/>
</svg>
