<svg xmlns="http://www.w3.org/2000/svg" width="1440" height="128" fill="none"><g clip-path="url(#a)"><path d="M0 0h1440v128H0V0z" fill="#27221F"/><circle opacity=".29" cx="1224" cy="127" r="183" fill="url(#b)"/><circle cx="653" cy="157" r="365" fill="url(#c)"/><circle opacity=".32" cx="838.5" cy="-71.5" r="226.5" fill="url(#d)"/><circle opacity=".11" cx="19" cy="135" r="183" fill="url(#e)"/><circle cx="1274" cy="31" r="365" fill="url(#f)"/><g clip-path="url(#g)" opacity=".74"><g opacity=".22"><path d="M71.748 34.29c-1.97-14.895-15.642-25.373-30.537-23.403-14.895 1.97-25.372 15.642-23.402 30.537 1.97 14.895 15.642 25.373 30.537 23.403 14.895-1.97 25.373-15.643 23.402-30.538z" fill="#2D2926"/><path opacity=".5" d="M54.434 63.23c14.044-5.34 21.1-21.055 15.759-35.1-5.34-14.044-21.055-21.1-35.1-15.758-14.043 5.34-21.099 21.055-15.758 35.099 5.34 14.044 21.055 21.1 35.099 15.759z" fill="url(#h)"/><path d="M71.748 34.29c-1.97-14.895-15.642-25.373-30.537-23.403-14.895 1.97-25.372 15.642-23.402 30.537 1.97 14.895 15.642 25.373 30.537 23.403 14.895-1.97 25.373-15.643 23.402-30.538z" stroke="#A9983F" stroke-width=".505" stroke-miterlimit="10"/><path d="M60.952 54.986c9.483-8.942 9.92-23.878.978-33.36s-23.878-9.92-33.36-.978-9.92 23.878-.978 33.36c8.942 9.483 23.878 9.92 33.36.978z" stroke="#A9983F" stroke-width=".513" stroke-miterlimit="10"/><path d="m67.238 30.798-.513-1.349 1.445-.55.55 1.445-1.482.454zM67.495 31.472l-.074-.193 1.482-.453.073.193-1.481.453zM67.691 32.28l-.146-.386 1.481-.453.184.481-1.519.357zM68.313 36.232l-.087-.518 1.591-.164-.01.555-1.494.127zM68.28 37.017l.046-.459 1.532-.031.05.422-1.628.068zM67.815 32.894l-.073-.193 1.554-.26.037.096-1.518.357zM68.246 40.117l.023-.23 1.509.198-.06.133-1.472-.102zM68.117 40.937l.046-.458 1.51.198-.01.555-1.546-.295zM68.011 41.529l.06-.133 1.546.294-.06.133-1.546-.294zM68.176 35.292c-.027-.651-.188-1.362-.31-1.977l1.554-.26c.16.71.224 1.458.384 2.17l-1.628.067zM68.256 39.562c-.014-.326.069-.688.055-1.014l.056-1.013 1.532-.031-.02 1.11c.014.325-.069.687-.018 1.109l-1.605-.161z" fill="#917C24"/><path d="M67.777 42.941c.142-.495.188-.954.234-1.412l1.546.294c-.046.459-.189.954-.295 1.545l-1.485-.427zM67.611 43.665l.023-.229 1.582.39-.156.17-1.449-.33zM67.386 44.523c.06-.133.12-.266.143-.495l1.485.427c-.06.133-.083.362-.142.495l-1.486-.427zM65.907 48.172l.276-.435 1.366.693-.18.399-1.462-.657zM65.513 48.874l.275-.436 1.403.79-.276.435-1.403-.79zM67.244 45.018l-.037-.096 1.486.427-.023.23-1.426-.56zM63.993 51.546c.096-.036.06-.133.156-.17l1.21.864c-.096.036-.06.133-.156.17l-1.21-.864zM63.369 52.224l.312-.339 1.306.827-.371.472-1.247-.96zM62.997 52.697l.156-.17 1.15.996-.059.133-1.247-.96zM66.362 47.338l.321-.894.382-1.027 1.425.56-.284.99-.478 1.064-1.366-.693zM64.328 50.978c.335-.569.767-1.174 1.102-1.742l1.366.693c-.335.569-.73 1.27-1.161 1.875l-1.307-.826zM62.098 53.81l.468-.508.468-.509 1.247.96c-.156.169-.276.435-.432.604l-.564.546-1.187-1.093zM61.63 54.32l.156-.17 1.15.995-.156.17-1.15-.996zM61.065 54.865c.06-.133.253-.207.313-.34l1.09 1.13c-.156.169-.252.205-.408.375l-.995-1.165zM57.941 57.376l.445-.28.802 1.239-.445.28-.802-1.24zM57.207 57.765c.193-.073.252-.206.445-.28l.838 1.336c-.192.073-.252.206-.444.28l-.839-1.336zM60.56 55.277l.193-.073.995 1.165-.096.037-1.091-1.129zM54.56 59.213l.193-.074.646 1.409-.193.073-.646-1.408zM53.73 59.639l.445-.28.55 1.445-.446.28-.549-1.445zM53.152 59.858l.193-.073.55 1.445-.194.073-.549-1.445zM58.638 56.89l.757-.619.757-.618.995 1.165-.853.655c-.253.207-.601.45-.854.656l-.802-1.239zM55.042 59.03c.289-.11.637-.353.926-.463l.445-.28.446-.28.838 1.336-.445.28-.445.279c-.29.11-.638.352-.927.462l-.838-1.335z" fill="#917C24"/><path d="m51.767 60.275 1.348-.513.55 1.445-1.445.55-.453-1.482zM51.189 60.495l.193-.074.453 1.482-.193.073-.453-1.481zM50.285 60.728l.482-.183.357 1.518-.385.146-.453-1.481zM46.428 61.313l.422-.05.165 1.59-.555-.009-.032-1.531zM45.548 61.317l.555.01.031 1.531-.518.087-.068-1.628zM49.767 60.815l.097-.037.356 1.518-.192.074-.26-1.555zM42.544 61.246l.23.023-.198 1.509-.23-.023.198-1.509zM41.627 61.154l.459.046-.198 1.509-.459-.046.198-1.509zM41.036 61.048l.133.06-.198 1.509-.133-.06.198-1.509zM47.272 61.212c.652-.027 1.363-.187 1.977-.31l.26 1.554c-.71.16-1.458.224-2.169.384l-.068-1.628zM43.1 61.256c.325-.014.687.069 1.013.055l1.013.056.031 1.532-1.11-.02c-.325.014-.687-.069-1.11-.018l.162-1.605zM39.623 60.813c.496.143.954.19 1.413.235l-.198 1.509c-.459-.046-.954-.189-1.546-.295l.331-1.449zM38.995 60.611l.23.023-.391 1.582-.266-.12.427-1.485zM38.138 60.386c.133.06.266.12.495.143l-.427 1.485c-.133-.06-.362-.083-.495-.142l.427-1.486zM34.489 58.907l.435.276-.693 1.366-.399-.18.657-1.462zM33.691 58.55l.435.275-.693 1.366-.435-.276.693-1.366zM37.547 60.28l.192-.073-.523 1.522-.133-.06.464-1.389zM31.115 56.993c.036.096.133.06.17.156l-.864 1.21c-.036-.096-.133-.06-.17-.156l.864-1.21zM30.34 56.406l.436.275-.923 1.343-.376-.408.863-1.21zM29.868 56.034l.17.156-.996 1.15-.133-.06.959-1.246zM35.323 59.362l.894.321.93.418-.463 1.39-.99-.285-1.064-.478.693-1.366zM31.587 57.365c.568.335 1.173.766 1.742 1.102l-.694 1.366c-.738-.491-1.306-.827-1.911-1.258l.863-1.21z" fill="#917C24"/><path d="m28.85 55.098.51.468.508.468-.96 1.247c-.169-.156-.435-.276-.604-.432l-.546-.564 1.092-1.187zM28.342 54.63l.17.156-1.093 1.187-.17-.156 1.093-1.187zM27.796 54.065c.037.097.17.156.243.35l-1.129 1.09c-.17-.156-.206-.253-.375-.409l1.261-1.03zM25.285 50.941l.28.445-1.335.838-.28-.445 1.335-.838zM24.8 50.244c.073.192.206.252.279.445l-1.335.838c-.073-.193-.206-.252-.28-.445l1.335-.838zM27.288 53.597l.17.156-1.166.995-.133-.06 1.129-1.09zM23.352 47.597l.17.156-1.409.646-.17-.156 1.409-.646zM23.022 46.73l.183.482-1.444.549-.183-.482 1.444-.549zM22.802 46.152l.074.193-1.445.55-.073-.194 1.444-.549zM25.77 51.638l.62.757.618.758-1.165.994-.656-.853c-.206-.253-.449-.601-.655-.854l1.239-.802zM23.631 48.042c.11.289.353.637.463.926l.28.445.279.445-1.335.839-.28-.445-.279-.445c-.11-.29-.353-.638-.462-.927l1.334-.838z" fill="#917C24"/><path d="M22.29 44.804c.183.481.33.866.512 1.348l-1.444.55-.55-1.445 1.482-.453zM22.166 44.189l.073.193-1.481.453-.073-.193 1.481-.453zM21.933 43.285l.087.519-1.518.357-.05-.422 1.48-.453zM21.348 39.428l-.046.46-1.495.127-.087-.519 1.628-.068zM21.248 38.585l.087.518-1.628.068.01-.555 1.53-.031zM21.75 42.804l.036.096-1.518.357.023-.23 1.459-.223zM21.415 35.544l-.023.23-1.605-.162.023-.23 1.605.162zM21.507 34.627l-.143.495-1.508-.197.046-.46 1.605.162zM21.516 34.072l.037.097-1.509-.198-.036-.097 1.508.198zM21.352 40.309c.027.651.188 1.362.31 1.977l-1.554.26c-.16-.71-.224-1.458-.384-2.17l1.628-.067zM21.309 36.136c.013.325-.07.688-.056 1.013l-.055 1.014-1.532.03.019-1.109c-.014-.325.07-.688.019-1.11l1.605.162zM21.848 32.624c-.143.495-.19.953-.235 1.412l-1.546-.295c.047-.458.19-.953.295-1.545l1.486.428zM21.953 32.032l-.023.23-1.485-.428.023-.23 1.485.428zM22.275 31.138c-.06.133-.12.266-.143.495l-1.485-.427c.06-.133.083-.362.142-.495l1.486.427zM23.657 27.525l-.179.4-1.462-.658.275-.435 1.366.693zM24.015 26.727l-.179.4-1.366-.694.18-.399 1.365.694zM22.38 30.547l-.022.229-1.523-.524.06-.133 1.486.428zM25.668 24.115c-.096.036-.06.133-.156.17l-1.21-.864c.096-.036.06-.133.156-.17l1.21.864zM26.159 23.377l-.275.435-1.247-.96.312-.338 1.21.863zM26.53 22.904l-.06.133-1.246-.959.156-.17 1.15.996zM23.3 28.323l-.419.93-.321.895-1.486-.428.381-1.027.382-1.027 1.462.657zM25.296 24.587c-.335.568-.766 1.173-1.101 1.742l-1.367-.694c.335-.568.73-1.27 1.162-1.875l1.306.827z" fill="#917C24"/><path d="m27.467 21.887-.468.509-.468.508-1.247-.959c.156-.17.275-.435.431-.605l.565-.545 1.187 1.092zM27.935 21.378l-.156.17-1.09-1.129.155-.17 1.09 1.13zM28.596 20.796c-.097.037-.253.207-.35.243l-1.09-1.129c.156-.17.252-.206.408-.375l1.032 1.261zM31.72 18.285l-.445.28-.935-1.299.445-.28.935 1.3zM32.32 17.836c-.192.073-.252.206-.444.28l-.838-1.335c.192-.074.252-.207.445-.28l.838 1.335zM28.967 20.324l-.06.133-1.09-1.129.156-.17.994 1.166zM35.064 16.352l-.156.17-.646-1.409.156-.17.646 1.409zM35.93 16.022l-.48.183-.647-1.408.482-.183.646 1.408zM36.413 15.84l-.097.036-.55-1.445.097-.037.55 1.445zM30.926 18.807l-.757.62-.853.654-.994-1.165.853-.655c.252-.206.6-.45.853-.656l.898 1.202zM34.523 16.668c-.29.11-.638.353-.927.463l-.445.28-.385.146-.802-1.239.445-.28.445-.279c.289-.11.638-.353.927-.463l.742 1.372zM37.761 15.326l-1.348.513-.55-1.445 1.445-.55.453 1.482zM38.472 15.166l-.193.073-.453-1.481.193-.073.453 1.481zM39.28 14.97l-.423.05-.453-1.482.518-.087.357 1.518zM43.233 14.348l-.555-.01-.128-1.494.518-.087.165 1.591zM43.98 14.284l-.422.05-.068-1.627.459.046.031 1.531zM39.857 14.75l-.193.073-.26-1.555.133.06.32 1.422zM47.117 14.415l-.23-.023.162-1.605.133.06-.065 1.568zM47.937 14.544l-.495-.143.198-1.508.555.009-.258 1.642zM48.492 14.553l-.096.037.294-1.546.097-.036-.295 1.545zM42.256 14.389c-.651.027-1.362.187-1.977.31l-.26-1.554c.71-.16 1.458-.224 2.169-.384l.068 1.628zM46.525 14.309c-.325.014-.688-.07-1.013-.056l-1.014-.055-.127-1.495 1.11.019c.325-.014.687.069 1.11.019l-.066 1.568zM49.941 14.884c-.495-.142-.954-.189-1.412-.235l.294-1.545c.459.046.954.189 1.545.295l-.427 1.485zM50.629 14.953l-.23-.023.428-1.485.133.06-.331 1.448zM51.523 15.275a1.423 1.423 0 0 0-.495-.143l.427-1.485c.133.06.362.083.495.142l-.427 1.486zM55.136 16.657l-.4-.179.658-1.462.435.275-.693 1.366zM55.837 17.052l-.399-.179.79-1.403.399.18-.79 1.402zM52.018 15.417l-.133-.06.428-1.485.229.023-.524 1.522zM58.546 18.668c-.036-.096-.133-.06-.17-.156l.864-1.21c.036.096.133.06.17.156l-.864 1.21zM59.188 19.196l-.34-.312.864-1.21.435.275-.959 1.247zM59.66 19.567l-.133-.06.96-1.246.169.156-.996 1.15zM54.338 16.3l-.93-.419-.991-.285.524-1.522 1.027.382 1.026.38-.656 1.463zM57.978 18.333c-.569-.335-1.174-.767-1.742-1.102l.693-1.366c.569.335 1.27.73 1.875 1.161l-.826 1.307z" fill="#917C24"/><path d="m60.774 20.467-.509-.468-.509-.468.96-1.247c.17.156.435.275.605.431l.545.565-1.092 1.187zM61.283 20.935l-.17-.156 1.032-1.054.17.156-1.032 1.054zM61.865 21.595c-.133-.06-.207-.252-.34-.312l1.13-1.09c.169.156.205.252.375.408l-1.165.994zM64.376 24.72l-.28-.445 1.202-.898.28.445-1.202.898zM64.728 25.357c-.073-.192-.206-.252-.279-.445l1.335-.838c.073.193.206.252.28.445l-1.335.838zM62.24 22.004l-.036-.097 1.129-1.09.073.192-1.166.995zM66.213 28.1l-.074-.192 1.409-.646.073.193-1.408.646zM66.639 28.93l-.28-.444 1.408-.646.28.445-1.408.646zM66.822 29.413l-.037-.097 1.445-.55.037.097-1.445.55zM63.853 23.926l-.618-.757-.655-.853 1.165-.995.655.854c.206.252.45.6.655.853l-1.202.898zM65.993 27.523c-.11-.29-.353-.638-.463-.927l-.28-.445-.242-.349 1.335-.838.28.445.279.445c.11.289.353.638.463.927l-1.372.742z" fill="#917C24"/><path d="M65.823 35.073c-1.537-11.622-12.205-19.798-23.828-18.26C30.372 18.35 22.197 29.017 23.734 40.64 25.27 52.263 35.939 60.44 47.562 58.901c11.623-1.537 19.798-12.205 18.261-23.828z" stroke="#A9983F" stroke-width=".4" stroke-miterlimit="10" stroke-linecap="square" stroke-dasharray="0.74 0.74"/></g><path opacity=".2" d="M52.824 33.192c.537-1.197.58-2.535.066-3.884l-.22-.578a5.981 5.981 0 0 0-7.71-3.462l-.867.33-1.832-4.817-2.986 1.136 1.831 4.816-2.311.88-1.832-4.817-2.986 1.136 1.832 4.816-6.068 2.307 1.245 3.275 3.95-1.502 5.97 15.701-3.372 1.282.668 3.495 6.068-2.308 1.795 4.72 2.986-1.136-1.795-4.72 2.312-.879 1.795 4.72 2.986-1.135-1.795-4.72 2.023-.77c3.564-1.355 5.258-5.306 3.94-8.774l-.257-.674c-.952-2.505-3.01-4.148-5.436-4.438zm-12.93-2.69 4.142-1.575c.77-.293 1.554-.26 2.219.038.665.298 1.21.863 1.503 1.633a2.88 2.88 0 0 1-1.671 3.723l-4.142 1.575-2.051-5.394zm10.933 14.254-4.816 1.832-2.674-7.032 4.816-1.831c.963-.367 1.977-.311 2.907.107.93.418 1.646 1.138 2.012 2.101.733 1.927-.222 4.054-2.245 4.823z" stroke="#C5B058" stroke-width=".6" stroke-miterlimit="10"/></g><g clip-path="url(#i)"><g opacity=".22"><path d="M1197.57 154.414c24.65-45.821 7.5-102.955-38.32-127.613-45.83-24.657-102.96-7.5-127.62 38.32-24.65 45.821-7.5 102.955 38.32 127.613 45.82 24.657 102.96 7.501 127.62-38.32z" fill="#2D2926"/><path opacity=".5" d="M1090.29 200.59c50.26 13.467 101.92-16.361 115.39-66.624 13.47-50.263-16.36-101.927-66.62-115.395-50.26-13.468-101.93 16.36-115.4 66.624-13.46 50.263 16.36 101.927 66.63 115.395z" fill="url(#j)"/><path d="M1197.57 154.414c24.65-45.821 7.5-102.955-38.32-127.613-45.83-24.657-102.96-7.5-127.62 38.32-24.65 45.821-7.5 102.955 38.32 127.613 45.82 24.657 102.96 7.501 127.62-38.32z" stroke="#A9983F" stroke-width=".505" stroke-miterlimit="10"/><path d="M1125.3 190.652c44.75-5.892 76.25-46.947 70.36-91.7-5.89-44.752-46.95-76.254-91.7-70.362-44.75 5.892-76.25 46.948-70.36 91.7 5.89 44.752 46.95 76.255 91.7 70.362z" stroke="#A9983F" stroke-width=".513" stroke-miterlimit="10"/><path d="m1034.93 125.9.48 2.345.48 2.346-5.22 1.557c-.16-.782-.67-1.656-.83-2.438l-.39-2.69 5.48-1.12zM1034.45 123.554l.16.782-5.48 1.12-.16-.782 5.48-1.12zM1034.06 120.864c-.09.345.16.782-.03 1.471l-5.38.775c-.16-.782-.06-1.126-.22-1.908l5.63-.338zM1033.34 107l-.12 1.816-5.45-.351.12-1.816 5.45.351zM1033.39 104.058c-.19.689.07 1.126-.12 1.816l-5.45-.352c.19-.689-.06-1.126.12-1.816l5.45.352zM1033.58 118.518l.16.782-5.29.431-.25-.438 5.38-.775zM1034.69 93.691l.16.782-5.26-1.041-.16-.782 5.26 1.041zM1035.52 90.588l-.46 1.724-5.17-1.385.46-1.724 5.17 1.385zM1036.07 88.52l-.18.69-5.17-1.386.18-.69 5.17 1.386zM1033.29 109.943c.07 1.127.14 2.253.2 3.38l.21 3.379-5.29.431-.11-3.725c-.07-1.126-.05-2.597-.11-3.724l5.1.259zM1034.57 95.507c-.28 1.034-.3 2.505-.58 3.54l-.11 1.816-.12 1.816-5.45-.352.12-1.816.11-1.816c.28-1.034.31-2.505.58-3.54l5.45.352z" fill="#917C24"/><path d="M1037.37 83.694c-.46 1.724-.83 3.102-1.3 4.826l-5.17-1.385c.47-1.724.93-3.448 1.39-5.172l5.08 1.73zM1038.27 81.718l-.19.69-5.08-1.731.19-.69 5.08 1.73zM1039.44 78.707l-.8 1.632-4.99-2.075.71-1.287 5.08 1.73zM1045.62 66.692l-1.06 1.194-4.46-2.672.81-1.632 4.71 3.11zM1047.05 64.118l-.81 1.632-4.71-3.11 1.15-1.538 4.37 3.016zM1039.9 76.984l-.09.345-4.98-2.075.53-.598 4.54 2.328zM1053.68 55.919l-.53.597-4.18-3.706.53-.597 4.18 3.706zM1055.8 53.53l-1.41 1.102-3.83-3.613 1.06-1.195 4.18 3.707zM1056.95 51.992l-.1.345-3.83-3.615.09-.344 3.84 3.614zM1043.84 69.172c-1.24 1.884-2.23 4.205-3.13 6.18l-4.89-2.42c.99-2.32 2.32-4.548 3.32-6.869l4.7 3.11zM1052.18 57.366c-.62.941-1.59 1.79-2.21 2.733l-2.21 2.733-4.36-3.017 2.3-3.078c.62-.942 1.59-1.791 2.3-3.078l4.18 3.707zM1060.81 48.594c-1.4 1.102-2.46 2.296-3.52 3.49l-3.74-3.959c1.06-1.194 2.46-2.296 3.96-3.742l3.3 4.21zM1062.31 47.147l-.53.598-3.31-4.212.53-.597 3.31 4.211zM1065.02 45.288c-.43.253-.87.505-1.4 1.102l-3.31-4.21c.44-.253.97-.85 1.41-1.103l3.3 4.211zM1076.23 37.945l-1.31.757-2.78-4.808 1.66-.664 2.43 4.715zM1078.85 36.431l-1.31.757-2.43-4.716 1.31-.757 2.43 4.716zM1066.52 43.842l-.53.597-3.21-4.556.43-.252 3.31 4.211zM1088.79 32.443c-.35-.093-.44.252-.78.16l-1.65-4.876c.34.092.43-.252.78-.16l1.65 4.876zM1091.66 31.366l-1.65.664-1.56-5.22 1.56-.32 1.65 4.876zM1093.66 30.793l-.43.253-1.56-5.22.78-.16 1.21 5.127zM1073.61 39.46l-3.06 1.766-2.72 1.859-3.3-4.211 3.15-2.111 3.15-2.112 2.78 4.808zM1086.79 33.015c-2.1.917-4.53 1.742-6.63 2.66l-2.43-4.717c2.09-.917 4.62-2.086 7.06-2.91l2 4.967z" fill="#917C24"/><path d="m1098.35 29.834-2.34.48-2.35.48-1.55-5.221c.78-.16 1.65-.665 2.43-.825l2.69-.387 1.12 5.473zM1100.7 29.354l-.78.16-.78-5.38.78-.16.78 5.38zM1103.73 29.058c-.34-.092-1.12.068-1.47-.024l-.77-5.38c.78-.16 1.12-.069 1.91-.229l.33 5.633zM1117.6 28.34l-1.82-.118.01-5.54 1.81.117v5.54zM1120.2 28.296c-.69-.184-1.13.068-1.82-.117l.35-5.448c.69.185 1.13-.067 1.82.117l-.35 5.448zM1105.74 28.486l-.44.252-.78-5.38.78-.16.44 5.288zM1130.91 29.689l-.78.16 1.04-5.264.78-.16-1.04 5.264zM1134.01 30.52l-1.72-.462 1.04-5.263 1.72.462-1.04 5.263zM1135.73 30.982l-.34-.092 1.38-5.172.35.093-1.39 5.17zM1114.31 28.197l-3.38.203-3.72.11-.43-5.287 3.72-.11c1.13-.068 2.6-.044 3.72-.111l.09 5.195zM1128.75 29.48c-1.04-.278-2.51-.303-3.54-.58l-1.82-.117-1.38-.37.26-5.103 1.82.117 1.81.117c1.04.277 2.51.302 3.54.58l-.69 5.355z" fill="#917C24"/><path d="M1140.56 32.275c-1.72-.462-3.1-.831-4.83-1.293l1.39-5.171c1.72.462 3.45.924 5.17 1.385l-1.73 5.079zM1142.88 33.266l-.69-.184 1.73-5.08.69.186-1.73 5.078zM1145.55 34.35l-1.29-.714 1.73-5.079 1.63.807-2.07 4.986zM1157.91 40.618l-1.54-1.151 2.67-4.457 1.63.806-2.76 4.802zM1160.14 41.954l-1.29-.714 3.11-4.71 1.19 1.06-3.01 4.364zM1147.61 34.904l-.69-.184 2.42-4.894.26.437-1.99 4.641zM1168.68 48.677l-.6-.53 3.71-4.179.25.437-3.36 4.272zM1170.72 50.703l-1.1-1.404 3.61-3.835 1.54 1.151-4.05 4.088zM1172.26 51.854l-.34-.093 3.96-3.742.34.092-3.96 3.743zM1155.08 38.752c-1.88-1.243-4.2-2.235-6.18-3.134l2.42-4.894c2.32.992 4.55 2.328 6.87 3.32l-3.11 4.708zM1167.23 47.181c-.94-.622-1.79-1.588-2.73-2.21l-2.73-2.21 2.67-4.457 3.08 2.302c.94.622 1.79 1.589 3.07 2.303l-3.36 4.272zM1175.66 55.72c-1.1-1.403-2.3-2.462-3.49-3.521l3.96-3.743c1.19 1.06 2.29 2.463 3.74 3.959l-4.21 3.305zM1177.45 57.309l-.6-.53 4.21-3.305.26.437-3.87 3.398zM1179.31 60.024c-.25-.438-.51-.875-1.1-1.404l4.21-3.305c.25.437.85.966 1.1 1.403l-4.21 3.306zM1186.65 71.228l-.75-1.31 4.8-2.777.67 1.656-4.72 2.431zM1187.82 73.759l-.75-1.312 5.06-2.338.75 1.31-5.06 2.34zM1180.41 61.427l-.25-.437 4.21-3.305.6.53-4.56 3.212zM1192.16 83.787c.09-.345-.26-.437-.16-.782l4.87-1.65c-.09.346.25.438.16.783l-4.87 1.65zM1192.89 86.57l-.32-1.564 4.87-1.65.67 1.657-5.22 1.557zM1193.46 88.57l-.25-.436 5.22-1.558.16.782-5.13 1.213zM1185.14 68.606l-1.77-3.06-2.2-2.807 4.55-3.213 2.12 3.152 2.11 3.152-4.81 2.776zM1191.24 81.694c-.92-2.093-1.74-4.531-2.66-6.624l4.72-2.431c.91 2.093 2.08 4.623 2.91 7.06l-4.97 1.995z" fill="#917C24"/><path d="m1194.76 93.354-.48-2.346-.48-2.345 5.23-1.557c.16.782.66 1.656.82 2.438l.39 2.69-5.48 1.12zM1195.24 95.7l-.16-.782 5.04-.868.16.782-5.04.867zM1195.54 98.734c-.25-.437-.07-1.126-.32-1.563l5.38-.776c.16.782.07 1.127.23 1.909l-5.29.43zM1196.26 112.598l.12-1.816 5.19-.086-.12 1.816-5.19.086zM1195.96 115.103c.18-.689-.07-1.126.11-1.816l5.45.352c-.18.689.07 1.126-.11 1.816l-5.45-.352zM1195.77 100.643l.09-.345 5.38-.775-.18.689-5.29.431zM1194.56 125.815l.19-.69 5.26 1.041-.18.69-5.27-1.041zM1194.08 129.01l.12-1.816 5.26 1.041-.12 1.816-5.26-1.041zM1196.4 109.31c-.07-1.126-.13-2.253-.2-3.379l-.11-3.725 5.29-.43.11 3.724c.06 1.127.04 2.598.11 3.725l-5.2.085zM1195.12 123.746c.28-1.034.3-2.505.58-3.539l.12-1.816.02-1.472 5.45.352-.12 1.816-.12 1.816c-.27 1.034-.3 2.505-.58 3.539l-5.35-.696z" fill="#917C24"/><path d="M1179.34 144.605c19.24-35.754 5.85-80.336-29.9-99.576-35.76-19.24-80.34-5.853-99.58 29.901-19.24 35.754-5.85 80.336 29.9 99.576 35.76 19.241 80.34 5.853 99.58-29.901z" stroke="#A9983F" stroke-width=".4" stroke-miterlimit="10" stroke-linecap="square" stroke-dasharray="0.74 0.74"/></g><path opacity=".2" d="M1146.65 112.975c3.93-2.271 6.76-5.946 8.06-10.772l.55-2.069c2.96-11.031-3.6-22.396-14.64-25.352l-3.1-.83 4.62-17.237-10.69-2.864-4.62 17.237-8.27-2.217 4.62-17.237-10.69-2.863-4.62 17.236-21.71-5.819-3.14 11.72 14.13 3.788-15.06 56.191-12.06-3.233-5.21 11.167 21.72 5.819-4.53 16.892 10.69 2.864 4.52-16.892 8.28 2.217-4.53 16.892 10.69 2.863 4.52-16.892 7.24 1.94c12.76 3.418 25.53-4.246 28.85-16.656l.65-2.413c2.4-8.963-.05-17.748-6.27-23.48zm-30.86-33.762 14.82 3.972c2.76.739 4.9 2.42 6.16 4.605 1.26 2.185 1.65 4.876.91 7.633-1.39 5.172-6.72 8.545-12.24 7.067l-14.82-3.972 5.17-19.305zm1.81 62.188-17.24-4.618 6.75-25.165 17.23 4.618c3.45.924 6.18 3.134 7.95 6.194 1.77 3.059 2.31 6.531 1.39 9.979-1.85 6.894-8.84 10.932-16.08 8.992z" stroke="#C5B058" stroke-width=".6" stroke-miterlimit="10"/></g><g clip-path="url(#k)" opacity=".9"><g opacity=".22"><path d="M1381.37 18.038c-2.71-25.712-25.75-44.36-51.47-41.65-25.71 2.71-44.35 25.75-41.65 51.462 2.71 25.712 25.75 44.359 51.47 41.65 25.71-2.71 44.36-25.75 41.65-51.462z" fill="#2D2926"/><path opacity=".5" d="M1350.26 67.03c24.4-8.545 37.26-35.255 28.71-59.657-8.54-24.402-35.25-37.257-59.66-28.71-24.4 8.546-37.25 35.255-28.71 59.657 8.55 24.403 35.26 37.257 59.66 28.71z" fill="url(#l)"/><path d="M1381.37 18.038c-2.71-25.712-25.75-44.36-51.47-41.65-25.71 2.71-44.35 25.75-41.65 51.462 2.71 25.712 25.75 44.359 51.47 41.65 25.71-2.71 44.36-25.75 41.65-51.462z" stroke="#A9983F" stroke-width=".505" stroke-miterlimit="10"/><path d="M1361.85 53.148c16.72-14.95 18.15-40.622 3.21-57.341-14.95-16.72-40.63-18.154-57.35-3.205-16.72 14.95-18.15 40.622-3.2 57.341 14.95 16.72 40.62 18.155 57.34 3.205z" stroke="#A9983F" stroke-width=".513" stroke-miterlimit="10"/><path d="M1373.77 11.826c-.3-.837-.53-1.507-.82-2.343l2.51-.88c.29.837.58 1.674.88 2.51l-2.57.713zM1374.18 12.997l-.12-.334 2.57-.712.12.335-2.57.711zM1374.48 14.395l-.24-.67 2.57-.711.3.836-2.63.545zM1375.37 21.224l-.13-.896 2.75-.21-.04.955-2.58.15zM1375.28 22.571l.1-.787 2.63.017.07.728-2.8.042zM1374.66 15.458l-.11-.335 2.68-.377.06.167-2.63.545zM1375.08 27.902l.05-.393 2.58.41-.11.225-2.52-.242zM1374.82 29.308l.1-.787 2.58.41-.04.954-2.64-.577zM1374.61 30.32l.11-.225 2.64.577-.11.226-2.64-.577zM1375.17 19.6c-.01-1.121-.25-2.352-.44-3.414l2.69-.377c.24 1.23.32 2.519.56 3.749l-2.81.042zM1375.12 26.948c-.01-.56.15-1.18.14-1.74l.14-1.742 2.64.017-.09 1.908c.01.56-.15 1.18-.08 1.908l-2.75-.351z" fill="#917C24"/><path d="M1374.14 32.74c.27-.846.37-1.633.47-2.42l2.64.578c-.1.786-.37 1.632-.57 2.644l-2.54-.803zM1373.82 33.978l.05-.393 2.71.744-.28.285-2.48-.636zM1373.4 35.443c.1-.226.21-.452.26-.846l2.54.803c-.11.226-.16.62-.27.845l-2.53-.802zM1370.69 41.653l.49-.737 2.32 1.255-.33.678-2.48-1.196zM1369.97 42.841l.5-.736 2.37 1.422-.49.736-2.38-1.422zM1373.13 36.288l-.06-.167 2.53.802-.05.394-2.42-1.03zM1367.24 47.37c.17-.06.11-.227.27-.285l2.05 1.54c-.17.058-.11.225-.28.284l-2.04-1.54zM1366.13 48.508l.56-.57 2.21 1.481-.67.795-2.1-1.706zM1365.47 49.303l.28-.285 1.93 1.766-.11.226-2.1-1.707zM1371.5 40.238l.6-1.523.7-1.75 2.43 1.03-.54 1.69-.87 1.808-2.32-1.255zM1367.84 46.407c.6-.963 1.37-1.984 1.98-2.946l2.31 1.254c-.6.963-1.31 2.151-2.08 3.172l-2.21-1.48zM1363.87 51.178l.83-.854c.28-.285.56-.57.83-.854l2.1 1.707c-.27.285-.49.736-.77 1.021l-.99.912-2-1.932zM1363.05 52.031l.27-.284 1.94 1.765-.28.285-1.93-1.766zM1362.05 52.944c.11-.226.44-.344.55-.57l1.83 1.992c-.28.285-.45.343-.72.628l-1.66-2.05zM1356.56 57.12l.78-.46 1.32 2.168-.78.46-1.32-2.167zM1355.28 57.757c.34-.117.44-.343.78-.46l1.38 2.334c-.33.117-.44.343-.78.46l-1.38-2.334zM1361.16 53.63l.34-.117 1.66 2.05-.17.059-1.83-1.992zM1350.66 60.126l.34-.117 1.04 2.452-.33.117-1.05-2.452zM1349.21 60.821l.78-.46.88 2.51-.78.46-.88-2.51zM1348.21 61.173l.34-.117.87 2.51-.33.117-.88-2.51zM1357.78 56.317c.45-.343.89-.686 1.33-1.03l1.33-1.029 1.66 2.05-1.5 1.088c-.44.343-1.05.745-1.49 1.088l-1.33-2.167zM1351.5 59.833c.5-.176 1.11-.577 1.61-.753l.78-.46.78-.461 1.38 2.334-.78.461-.77.46c-.51.176-1.12.578-1.62.754l-1.38-2.335zM1345.81 61.826c.84-.293 1.51-.527 2.34-.82l.88 2.51c-.84.293-1.67.586-2.51.88l-.71-2.57zM1344.8 62.178l.34-.117.71 2.569-.33.117-.72-2.57zM1343.24 62.538l.84-.293.54 2.628-.67.234-.71-2.569zM1336.58 63.368l.73-.067.21 2.745-.96-.042.02-2.636zM1335.06 63.335l.96.041-.02 2.636-.89.126-.05-2.803zM1342.34 62.664l.17-.059.55 2.628-.34.117-.38-2.686zM1329.9 63.076l.39.05-.41 2.586-.39-.05.41-2.586zM1328.33 62.876l.78.1-.41 2.586-.78-.1.41-2.586zM1327.31 62.667l.23.108-.41 2.586-.23-.108.41-2.586zM1338.03 63.234c1.13-.017 2.36-.26 3.42-.445l.38 2.687c-1.23.243-2.52.318-3.75.561l-.05-2.803zM1330.85 63.118c.56-.009 1.18.15 1.74.142l1.75.142-.02 2.636-1.91-.083c-.56.008-1.18-.15-1.91-.084l.35-2.753z" fill="#917C24"/><path d="M1324.9 62.198c.84.268 1.63.368 2.41.468l-.41 2.587c-.78-.1-1.63-.368-2.64-.577l.64-2.478zM1323.82 61.822l.4.05-.75 2.703-.45-.217.8-2.536zM1322.36 61.395c.23.11.45.218.84.268l-.8 2.536c-.22-.109-.62-.159-.84-.268l.8-2.535zM1316.15 58.685l.74.494-1.26 2.318-.68-.326 1.2-2.486zM1314.79 58.033l.74.493-1.25 2.319-.74-.494 1.25-2.318zM1321.35 61.187l.33-.118-.97 2.595-.22-.109.86-2.368zM1310.43 55.238c.06.168.23.109.29.276l-1.54 2.043c-.06-.168-.23-.11-.29-.276l1.54-2.043zM1309.13 54.193l.73.493-1.64 2.268-.63-.72 1.54-2.041zM1308.33 53.532l.29.276-1.77 1.933-.23-.109 1.71-2.1zM1317.56 59.505l1.53.594 1.58.761-.86 2.369-1.69-.536-1.81-.87 1.25-2.318zM1311.23 55.9c.96.602 1.98 1.371 2.94 1.974l-1.25 2.318c-1.25-.878-2.21-1.48-3.23-2.25l1.54-2.043zM1306.62 51.875l.86.828c.28.276.57.552.85.828l-1.71 2.101c-.28-.276-.73-.493-1.02-.77l-.91-.995 1.93-1.992zM1305.77 51.046l.28.276-1.93 1.993-.28-.276 1.93-1.993zM1304.86 50.05c.06.168.28.277.4.611l-1.99 1.825c-.29-.276-.34-.443-.63-.72l2.22-1.715zM1300.68 44.562l.46.778-2.33 1.381-.46-.778 2.33-1.381zM1299.88 43.34c.11.334.34.443.46.778l-2.34 1.381c-.11-.334-.34-.443-.46-.778l2.34-1.381zM1304 49.222l.29.276-2.05 1.658-.23-.109 1.99-1.825zM1297.51 38.72l.28.277-2.45 1.046-.28-.276 2.45-1.046zM1296.98 37.214l.29.837-2.51.88-.29-.837 2.51-.88zM1296.63 36.21l.12.335-2.51.88-.12-.335 2.51-.88zM1301.48 45.783c.35.444.69.887 1.03 1.33l1.03 1.331-2.05 1.657-1.08-1.497c-.35-.444-.75-1.055-1.09-1.498l2.16-1.323zM1297.97 39.499c.17.502.58 1.113.75 1.615l.46.778.46.778-2.33 1.382-.46-.779-.46-.778c-.18-.502-.58-1.113-.76-1.615l2.34-1.381zM1295.81 33.867c.29.837.53 1.507.82 2.343l-2.51.88c-.29-.837-.59-1.674-.88-2.51l2.57-.713zM1295.62 32.804l.12.335-2.57.712-.12-.335 2.57-.712zM1295.26 31.24l.13.895-2.63.544-.07-.728 2.57-.711zM1294.43 24.578l-.1.787-2.57.151-.13-.895 2.8-.043zM1294.3 23.122l.13.895-2.81.043.04-.954 2.64.016zM1294.97 30.403l.06.167-2.63.545.05-.394 2.52-.318zM1294.73 17.9l-.05.393-2.76-.35.05-.394 2.76.35zM1294.93 16.326l-.27.846-2.59-.41.1-.787 2.76.351zM1294.97 15.373l.06.167-2.59-.41-.06-.167 2.59.41zM1294.4 26.093c.02 1.121.26 2.352.45 3.414l-2.69.377c-.24-1.23-.32-2.518-.56-3.749l2.8-.042zM1294.52 18.913c.01.56-.15 1.18-.15 1.74l-.14 1.741-2.63-.016.08-1.908c-.01-.561.15-1.18.08-1.908l2.76.35zM1295.6 12.895c-.26.846-.36 1.632-.46 2.419l-2.65-.577c.1-.787.37-1.632.58-2.645l2.53.803zM1295.81 11.883l-.05.393-2.53-.803.05-.393 2.53.803zM1296.41 10.36c-.11.225-.22.451-.27.845l-2.54-.803c.11-.226.16-.62.27-.846l2.54.803zM1298.95 4.208l-.33.678-2.48-1.197.49-.736 2.32 1.255zM1299.6 2.852l-.32.678-2.32-1.255.32-.678 2.32 1.255zM1296.62 9.347l-.05.393-2.6-.97.11-.226 2.54.803zM1298.3 5.564l-.76 1.581-.6 1.524-2.53-.803.7-1.75.7-1.749 2.49 1.197zM1301.9-.772c-.6.962-1.37 1.983-1.97 2.946l-2.32-1.255c.6-.963 1.31-2.151 2.08-3.172l2.21 1.48zM1369.12 1.24l-.46-.778 2.11-1.49.46.778-2.11 1.49zM1369.7 2.353c-.12-.335-.34-.443-.46-.778l2.33-1.381c.12.334.35.443.46.778l-2.33 1.381zM1372.13 7.14l-.12-.335 2.45-1.047.12.335-2.45 1.047zM1372.82 8.587l-.46-.778 2.45-1.046.46.778-2.45 1.046zM1373.11 9.424l-.05-.167 2.51-.88.05.168-2.51.88zM1368.26-.149c-.34-.443-.69-.887-1.03-1.33l-1.09-1.498 2.05-1.658 1.09 1.498c.34.444.74 1.055 1.09 1.498l-2.11 1.49zM1371.77 6.135c-.17-.502-.57-1.112-.75-1.615l-.46-.778-.4-.61 2.33-1.382.46.778.46.778c.18.503.58 1.113.76 1.616l-2.4 1.213z" fill="#917C24"/><path d="M1371.14 19.116c-2.12-20.063-20.09-34.614-40.16-32.5-20.06 2.114-34.61 20.093-32.5 40.156 2.12 20.063 20.1 34.614 40.16 32.5 20.06-2.114 34.61-20.093 32.5-40.156z" stroke="#A9983F" stroke-width=".4" stroke-miterlimit="10" stroke-linecap="square" stroke-dasharray="0.74 0.74"/></g><path opacity=".2" d="M1348.86 15.287c.98-2.034 1.11-4.335.29-6.678l-.35-1.005c-1.87-5.355-7.75-8.183-13.1-6.307l-1.51.527-2.93-8.368-5.19 1.817 2.93 8.368-4.02 1.407-2.93-8.368-5.18 1.817 2.93 8.368-10.55 3.693 2 5.69 6.86-2.403 9.55 27.28-5.86 2.052.99 6.042 10.55-3.693 2.87 8.201 5.19-1.817-2.88-8.2 4.02-1.408 2.87 8.201 5.19-1.817-2.87-8.2 3.51-1.231c6.2-2.17 9.29-8.89 7.18-14.915l-.41-1.171c-1.52-4.352-4.99-7.272-9.15-7.882zm-22.12-5.218 7.2-2.52c1.34-.47 2.69-.378 3.82.166s2.04 1.54 2.51 2.879c.88 2.51-.37 5.39-3.05 6.327l-7.19 2.52-3.29-9.372zm18.16 25.02-8.37 2.93-4.28-12.218 8.37-2.93c1.67-.587 3.42-.445 5 .317 1.58.76 2.78 2.033 3.36 3.706 1.17 3.348-.57 6.963-4.08 8.194z" stroke="#C5B058" stroke-width=".6" stroke-miterlimit="10"/></g><g clip-path="url(#m)" opacity=".77"><g opacity=".22"><path d="M908.251 94.825c22.736-7.088 35.422-31.266 28.334-54.003-7.088-22.736-31.266-35.422-54.003-28.334-22.737 7.088-35.423 31.266-28.334 54.003 7.088 22.737 31.266 35.423 54.003 28.334z" fill="#2D2926"/><path opacity=".5" d="M908.251 94.825c22.736-7.088 35.422-31.266 28.334-54.003-7.088-22.736-31.266-35.422-54.003-28.334-22.737 7.088-35.423 31.266-28.334 54.003 7.088 22.737 31.266 35.423 54.003 28.334z" fill="url(#n)"/><path d="M908.251 94.825c22.736-7.088 35.422-31.266 28.334-54.003-7.088-22.736-31.266-35.422-54.003-28.334-22.737 7.088-35.423 31.266-28.334 54.003 7.088 22.737 31.266 35.423 54.003 28.334z" stroke="#A9983F" stroke-width=".505" stroke-miterlimit="10"/><path d="M906.89 90.462c20.327-6.337 31.668-27.952 25.331-48.28-6.337-20.326-27.952-31.667-48.279-25.33-20.327 6.337-31.668 27.952-25.331 48.279s27.952 31.668 48.279 25.331z" stroke="#A9983F" stroke-width=".361" stroke-miterlimit="10"/><path d="M905.175 84.96c17.288-5.39 26.934-23.774 21.545-41.062-5.39-17.288-23.774-26.934-41.063-21.544-17.288 5.39-26.934 23.773-21.544 41.062 5.39 17.288 23.774 26.934 41.062 21.544z" stroke="#A9983F" stroke-width=".158" stroke-miterlimit="10"/><path d="M930.048 47.231c-.224-1.387-.638-2.715-1.111-4.232l4.364-1.36c.473 1.517.946 3.035 1.099 4.86l-4.352.732zM930.45 49.188l-.177-.57 4.6-.6.177.568-4.6.602zM930.65 51.832l-.035-1.447 4.47-.352.094 1.636-4.529.163zM929.35 63.685l.404-1.375 4.314 1.153-.345 1.565-4.373-1.343zM928.423 66.056l.202-.688.392-.746 4.184 1.401-.143.878-.202.687-4.433-1.532zM930.803 53.657c-.059-.19-.118-.38.071-.438l4.588.026c.059.19.118.38-.012.629l-4.647-.217zM924.055 74.078l.451-.556 3.78 2.776-.451.557-3.78-2.777zM922.442 76.247l.451-.557.45-.557 3.78 2.777-.64.616-.392.746-3.649-3.025zM921.409 77.61l.321-.309 3.459 3.085-.51.367-3.27-3.144zM929.968 60.995c.416-2.003.643-3.947.81-6.081l4.647.216c-.108 2.324-.406 4.706-.763 6.9l-4.694-1.035zM925.088 72.716a45.51 45.51 0 0 0 2.872-5.475l4.302 1.781c-.795 2.122-2.03 4.172-3.264 6.222l-3.91-2.528z" fill="#917C24"/><path d="M918.206 80.69c1.151-.984 2.112-1.908 3.013-3.022l3.46 3.085a44.858 44.858 0 0 1-3.523 3.388l-2.95-3.452zM916.676 81.79c.19-.058.321-.307.51-.366l2.819 3.7c-.189.06-.32.308-.51.368l-2.819-3.701zM914.447 83.319c.32-.308.889-.486 1.209-.794l2.629 3.76c-.51.367-.83.675-1.399.853l-2.439-3.82zM903.608 87.946l1.328-.414 1.171 4.423-1.518.473-.981-4.482zM901.083 88.526c.379-.119 1.007-.106 1.387-.225l.981 4.482c-.569.177-1.008.106-1.577.284l-.791-4.541zM912.857 84.23l.57-.177 2.249 3.878-.51.367-2.309-4.068zM892.025 88.851l.629.013-.407 4.706-.687-.202.465-4.517zM889.394 88.423c.439.071.877.143 1.505.155l-.655 4.575c-.628-.012-1.067-.083-1.564-.345l.714-4.385zM887.64 88.137l.438.072-.904 4.444-.628-.012 1.094-4.504zM906.134 87.367a32.315 32.315 0 0 0 5.703-2.402l2.12 4.126c-1.969 1.03-4.186 1.93-6.463 2.64l-1.36-4.364zM893.721 88.947c2.133.168 4.149-.044 6.164-.256l.602 4.6c-2.205.271-4.659.412-6.983.303l.217-4.647z" fill="#917C24"/><path d="m883.515 86.925 4.125 1.212-1.094 4.504c-1.565-.345-3.188-.88-4.812-1.414l1.781-4.302zM881.643 86.26c.248.13.438.071.497.261l-1.781 4.302c-.249-.13-.498-.261-.687-.202l1.971-4.361zM879.213 85.144l1.244.653-1.84 4.112-1.493-.783 2.089-3.982zM869.675 77.918l.983 1.15-3.144 3.27-1.232-1.281 3.393-3.14zM868.076 76.127c.308.32.616.64.983 1.15l-3.393 3.14c-.367-.51-.675-.83-1.042-1.34l3.452-2.95zM877.661 84.17l.308.321-2.279 4.04-.308-.32 2.279-4.04zM863.138 68.3l.367.51-4.127 2.118-.427-.7 4.187-1.929zM862.179 65.892l.414 1.328-4.245 1.74-.473-1.518 4.304-1.55zM861.647 64.184l.118.38-4.364 1.36-.118-.38 4.364-1.36zM871.523 79.84c1.481 1.411 3.092 2.574 4.893 3.678l-2.338 3.851c-2.05-1.234-3.72-2.587-5.45-4.13l2.895-3.4zM864.049 69.888c.971 1.78 1.942 3.558 3.292 5.219l-3.7 2.819a37.53 37.53 0 0 1-3.719-5.919l4.127-2.119z" fill="#917C24"/><path d="M860.535 59.952c.224 1.387.639 2.715 1.112 4.233l-4.364 1.36c-.473-1.518-.946-3.036-1.099-4.861l4.351-.732zM860.323 57.936l-.012.628-4.541.791-.047-.817 4.6-.602zM859.934 55.352l.224 1.387-4.659.411-.094-1.636 4.529-.163zM861.483 43.628l-.404 1.375-4.504-1.094.534-1.623 4.374 1.342zM862.22 41.317l-.262.498-.202.687-4.373-1.342.202-.688.332-.936 4.303 1.781zM859.971 53.467c.059.19.118.38-.072.438l-4.588-.027c-.059-.19-.118-.38.013-.628l4.647.217zM866.528 33.105l-.261.497-3.91-2.527.451-.557 3.72 2.587zM868.142 30.936l-.451.557-.451.557-3.59-2.836.451-.557.451-.556 3.59 2.835zM869.423 29.704l-.32.308-3.46-3.084.321-.308 3.459 3.084zM860.806 46.129c-.417 2.003-.833 4.006-.811 6.081l-4.647-.217c.109-2.323.407-4.706.764-6.899l4.694 1.035zM865.555 34.657c-1.163 1.611-2.017 3.543-2.932 5.285l-4.053-1.65c.796-2.122 1.781-4.303 3.075-6.163l3.91 2.528zM872.436 26.683c-1.15.984-2.111 1.908-3.013 3.021l-3.459-3.084a44.664 44.664 0 0 1 3.523-3.388l2.949 3.451zM873.907 25.392c-.189.06-.32.308-.51.367l-2.819-3.7c.19-.06.321-.308.51-.367l2.819 3.7zM876.137 23.864c-.32.308-.7.427-1.21.794l-2.629-3.76c.51-.367.83-.675 1.4-.852l2.439 3.818zM887.165 19.177l-1.328.415-1.17-4.423 1.517-.473.981 4.481zM889.501 18.657c-.38.119-1.008.107-1.387.225l-.981-4.482c.628.012 1.008-.106 1.577-.283l.791 4.54zM877.726 22.953l-.32.308-2.499-4.009.51-.367 2.309 4.068zM898.807 18.462l-.687-.202.275-4.457.818-.047-.406 4.706zM901.379 18.701a9.672 9.672 0 0 0-1.505-.155l.655-4.575c.628.012 1.067.083 1.565.344l-.715 4.386zM903.193 19.177l-.498-.262.904-4.444.498.26-.904 4.446zM884.509 20.006a32.356 32.356 0 0 0-5.704 2.402l-2.119-4.127c1.969-1.03 4.186-1.93 6.463-2.639l1.36 4.364zM896.863 18.236c-2.134-.168-4.149.044-6.165.256l-.601-4.6c2.205-.27 4.659-.412 6.983-.303l-.217 4.647zM907.317 20.389l-4.124-1.212 1.093-4.505c1.565.345 3.189.88 4.813 1.415l-1.782 4.302zM909.19 21.054c-.249-.13-.439-.072-.498-.261l1.781-4.302c.249.13.498.26.688.201l-1.971 4.362zM911.62 22.17l-1.434-.594 2.03-4.172 1.434.594-2.03 4.172zM920.909 29.265l-.924-.96 3.144-3.27 1.172 1.091-3.392 3.14zM922.757 31.187c-.308-.32-.616-.64-.983-1.15l3.392-3.14c.367.51.675.83 1.043 1.34l-3.452 2.95zM913.113 22.953l-.439-.071 2.279-4.041.498.26-2.338 3.852zM927.446 38.884l-.177-.57 4.186-1.929.177.57-4.186 1.929zM928.464 41.48l-.473-1.517 4.245-1.74.722 1.649-4.494 1.609zM929.186 43.13l-.178-.57 4.364-1.36.177.569-4.363 1.36zM919.061 27.343c-1.481-1.411-3.093-2.574-4.894-3.678l2.528-3.91c2.05 1.234 3.721 2.587 5.45 4.129l-3.084 3.46zM926.724 37.236c-.971-1.78-1.942-3.558-3.292-5.219l3.701-2.819a37.525 37.525 0 0 1 3.718 5.918l-4.127 2.12z" fill="#917C24"/></g><g opacity=".22" stroke="#C5B058" stroke-width=".5" stroke-miterlimit="10"><path d="m899.142 65.61-21.17-3.809 8.514-36.791 27.722 25.494-15.066 15.105z" stroke-linejoin="round"/><path d="m900.03 68.455-21.111-3.618 25.487 17.657 10.749-28.954-15.125 14.915z" stroke-linejoin="round"/><path d="m886.426 24.82 12.716 40.79M877.972 61.801l15.256-15.164 20.98 3.867M900.03 68.455l4.376 14.039"/></g></g><g clip-path="url(#o)"><g opacity=".16"><path d="M159.483 125.814c14.206-25.119 5.36-57-19.76-71.206-25.119-14.206-56.998-5.36-71.205 19.76-14.206 25.119-5.36 56.998 19.76 71.205 25.118 14.206 56.998 5.36 71.205-19.759z" fill="#2D2926"/><path opacity=".5" d="M99.46 150.166c27.713 8.054 56.707-7.883 64.761-35.595 8.054-27.713-7.882-56.707-35.595-64.761-27.713-8.054-56.707 7.882-64.761 35.595-8.054 27.712 7.882 56.707 35.595 64.761z" fill="url(#p)" stroke="url(#q)" stroke-miterlimit="10"/><path d="M159.483 125.814c14.206-25.119 5.36-57-19.76-71.206-25.119-14.206-56.998-5.36-71.205 19.76-14.206 25.119-5.36 56.998 19.76 71.205 25.118 14.206 56.998 5.36 71.205-19.759z" stroke="#A9983F" stroke-width=".505" stroke-miterlimit="10"/><path d="M118.99 145.064c24.883-2.745 42.829-25.142 40.084-50.024-2.745-24.883-25.142-42.83-50.025-40.085-24.883 2.745-42.83 25.142-40.084 50.025 2.745 24.883 25.142 42.829 50.025 40.084z" stroke="#A9983F" stroke-width=".513" stroke-miterlimit="10"/><path d="m156.605 115.243.774-2.661 2.851.829-.829 2.851-2.796-1.019zM156.219 116.573l.11-.38 2.796 1.019-.111.38-2.795-1.019zM155.587 118.039l.221-.76 2.795 1.018-.276.951-2.74-1.209zM151.967 124.82l.466-.895 2.63 1.588-.656.84-2.44-1.533zM151.01 125.984l.601-.65 2.385 1.724-.411.705-2.575-1.779zM155.065 119.124l.111-.38 2.685 1.399-.055.19-2.741-1.209zM152.844 123.219c.712-1.029 1.289-2.305 1.81-3.39l2.685 1.399c-.576 1.275-1.343 2.495-1.92 3.77l-2.575-1.779zM148.029 129.859c.356-.515.902-.975 1.257-1.49l1.258-1.49 2.385 1.724-1.313 1.68c-.356.515-.902.975-1.313 1.68l-2.274-2.104zM78.814 128.294l.325.301-2.428 1.974-.27-.491 2.373-1.784zM77.76 126.957c.135.246.27.491.595.791l-2.374 1.784c-.135-.245-.46-.546-.594-.791l2.373-1.784zM73.874 120.469l.35.926-2.644 1.293-.404-.736 2.698-1.483zM73.065 118.997l.35.926-2.644 1.293-.349-.926 2.643-1.293zM76.975 126.111l.38.11-2.563 1.729-.135-.246 2.318-1.593zM70.915 113.631c-.056.19.134.245.08.435l-2.724.858c.056-.19-.134-.245-.08-.435l2.724-.858zM70.406 111.834l.35.926-2.969.993-.104-1.061 2.723-.858zM70.112 110.718l.08.436-2.858.612-.135-.245 2.913-.803zM74.628 122.131l1 1.527.943 1.717-2.318 1.594-1.19-1.583-1.078-1.962 2.643-1.293zM71.209 114.747c.484 1.171.912 2.533 1.397 3.704l-2.643 1.293c-.564-1.607-1.048-2.778-1.477-4.139l2.723-.858z" fill="#917C24"/><path d="m69.635 108.106.238 1.306.24 1.306-2.914.803c-.08-.436-.349-.926-.428-1.362l-.184-1.496 3.048-.557zM69.396 106.8l.08.435-3.048.557-.08-.435 3.048-.557zM69.212 105.304c-.055.19.08.435-.03.815l-2.993.367c-.08-.435-.024-.625-.104-1.061l3.127-.121zM68.975 97.608l-.086 1.006-3.017-.258.087-1.006 3.016.258zM69.037 95.977c-.11.38.024.626-.086 1.006l-3.017-.258c.11-.38-.024-.626.086-1.006l3.017.258zM68.974 103.998l.08.435-2.938.177-.135-.245 2.993-.367zM69.879 90.244l.08.436-2.907-.639-.08-.435 2.907.638zM70.376 88.534l-.276.95-2.851-.829.276-.95 2.85.829zM70.707 87.393l-.11.38-2.851-.828.11-.38 2.851.828zM68.913 99.24l.074 1.876.073 1.876-2.938.177-.017-2.066c-.025-.626.006-1.441-.018-2.067l2.826.203zM69.793 91.25c-.166.57-.197 1.386-.363 1.956l-.086 1.005-.086 1.006-3.017-.258.086-1.006.087-1.005c.165-.57.196-1.386.362-1.956l3.017.258zM71.48 84.732l-.773 2.661-2.85-.829.828-2.85 2.796 1.018zM72.002 83.647l-.11.38-2.796-1.018.11-.38 2.796 1.018zM72.69 81.992l-.467.895-2.74-1.209.41-.705 2.796 1.019zM76.254 75.401l-.601.65-2.44-1.534.466-.895 2.575 1.78zM77.076 73.991l-.466.895-2.575-1.779.656-.84 2.385 1.724zM72.966 81.041l-.056.19-2.74-1.208.3-.325 2.496 1.343zM80.848 69.522l-.3.325-2.275-2.104.3-.325 2.275 2.104zM82.05 68.222l-.791.595-2.084-2.049.6-.65 2.275 2.104zM82.707 67.383l-.056.19-2.084-2.049.055-.19 2.085 2.049zM75.242 76.756c-.712 1.03-1.289 2.305-1.81 3.39l-2.686-1.399c.577-1.275 1.344-2.495 1.92-3.77l2.576 1.779zM80.002 70.307c-.356.515-.902.974-1.258 1.49l-1.257 1.489-2.385-1.724 1.313-1.68c.355-.514.901-.974 1.312-1.68l2.275 2.105zM84.89 65.544c-.791.594-1.392 1.244-1.993 1.894l-2.03-2.239c.602-.65 1.393-1.244 2.24-2.029l1.783 2.374zM85.736 64.759l-.3.325-1.784-2.373.3-.325 1.784 2.373zM87.263 63.76c-.245.135-.49.27-.79.595l-1.784-2.374c.245-.135.545-.46.79-.595l1.784 2.374zM93.562 59.82l-.736.404-1.483-2.699.926-.35 1.293 2.644zM95.034 59.01l-.736.404-1.293-2.643.736-.404 1.293 2.643zM88.11 62.975l-.3.325-1.73-2.563.246-.135 1.784 2.373zM100.59 56.915c-.19-.056-.246.135-.436.08l-.857-2.723c.19.055.245-.135.435-.08l.858 2.723zM102.196 56.35l-.926.35-.802-2.913.871-.159.857 2.723zM103.312 56.057l-.245.135-.802-2.913.435-.08.612 2.858zM92.09 60.628l-1.717.944-1.527.999-1.784-2.373 1.773-1.134 1.772-1.134 1.483 2.698zM99.474 57.209c-1.172.484-2.533.912-3.704 1.397l-1.293-2.644c1.17-.484 2.587-1.103 3.949-1.531l1.048 2.778z" fill="#917C24"/><path d="m105.925 55.58-1.306.238-1.307.239-.802-2.913c.435-.08.926-.35 1.361-.429l1.496-.183.558 3.047zM107.231 55.34l-.436.08-.367-2.992.436-.08.367 2.992zM108.917 55.212c-.19-.055-.625.025-.815-.03l-.368-2.993c.436-.08.626-.024 1.061-.104l.122 3.127zM116.613 54.975l-1.006-.086.068-3.072 1.006.086-.068 3.072zM118.053 54.982c-.38-.11-.625.024-1.005-.086l.258-3.017c.38.11.626-.024 1.006.086l-.259 3.017zM110.033 54.918l-.245.135-.367-2.992.435-.08.177 2.937zM123.976 55.879l-.435.08.639-2.907.435-.08-.639 2.907zM125.687 56.376l-.95-.276.638-2.907.951.277-.639 2.906zM126.637 56.652l-.19-.055.829-2.851.19.055-.829 2.851zM114.791 54.858l-1.876.073-2.066.018-.177-2.937 2.066-.018c.625-.024 1.441.007 2.066-.018l-.013 2.882zM122.781 55.737c-.57-.165-1.386-.196-1.956-.362l-1.006-.086-.76-.221.203-2.827 1.006.086 1.005.087c.571.165 1.386.196 1.956.362l-.448 2.961z" fill="#917C24"/><path d="m129.298 57.425-2.661-.773.829-2.851 2.851.828-1.019 2.796zM130.574 58.002l-.381-.11 1.019-2.796.38.11-1.018 2.796zM132.039 58.634l-.705-.411 1.019-2.796.895.466-1.209 2.741zM138.82 62.254l-.84-.657 1.533-2.44.895.467-1.588 2.63zM140.04 63.02l-.705-.41 1.778-2.575.65.6-1.723 2.385zM133.179 58.965l-.38-.11 1.399-2.685.135.245-1.154 2.55zM144.699 66.848l-.325-.3 2.104-2.275.134.246-1.913 2.329zM145.808 67.995l-.594-.791 2.048-2.084.84.656-2.294 2.219zM146.648 68.651l-.19-.055 2.239-2.029.19.055-2.239 2.03zM137.275 61.186c-1.03-.711-2.306-1.288-3.391-1.81l1.399-2.685c1.275.577 2.495 1.344 3.771 1.92l-1.779 2.575zM143.914 66.002c-.515-.356-.975-.902-1.49-1.258l-1.489-1.257 1.533-2.44 1.68 1.312c.515.356.975.902 1.68 1.313l-1.914 2.33zM148.487 70.835c-.595-.792-1.244-1.393-1.894-1.994l2.239-2.029c.649.601 1.244 1.392 2.029 2.239l-2.374 1.784zM149.462 71.736l-.325-.3 2.373-1.784.135.245-2.183 1.84zM150.461 73.263c-.135-.245-.27-.49-.595-.79l2.374-1.785c.134.246.459.546.594.792l-2.373 1.783zM154.402 79.562l-.405-.736 2.699-1.483.349.926-2.643 1.293zM155.021 80.978l-.405-.736 2.833-1.238.405.736-2.833 1.238zM151.055 74.055l-.135-.246 2.374-1.784.325.301-2.564 1.729zM157.306 86.59c.055-.19-.135-.246-.079-.436l2.722-.858c-.055.19.135.246.08.436l-2.723.858zM157.68 88.14l-.159-.87 2.722-.858.35.926-2.913.803zM157.974 89.257l-.135-.245 2.913-.803.079.436-2.857.612zM153.593 78.09l-.944-1.717-1.189-1.583 2.563-1.728 1.134 1.772 1.134 1.773-2.698 1.483zM156.822 85.418c-.484-1.171-.913-2.532-1.397-3.704l2.643-1.293c.484 1.171 1.103 2.588 1.532 3.95l-2.778 1.047z" fill="#917C24"/><path d="m158.641 91.925-.238-1.307-.239-1.306 2.913-.802c.079.435.349.926.429 1.361l.183 1.496-3.048.558zM158.88 93.23l-.079-.435 2.802-.422.08.435-2.803.423zM159.008 94.917c-.134-.245-.024-.626-.159-.87l2.993-.368c.079.436.024.626.104 1.06l-2.938.178zM159.245 102.612l.087-1.005 2.882.013-.087 1.005-2.882-.013zM159.049 103.998c.11-.38-.024-.625.086-1.006l3.017.259c-.111.38.024.625-.086 1.005l-3.017-.258zM159.112 95.978l.056-.19 2.992-.367-.11.38-2.938.177zM158.152 109.921l.11-.38 2.907.639-.111.38-2.906-.639zM157.845 111.687l.086-1.006 2.906.639-.086 1.005-2.906-.638zM157.569 112.637l.055-.19 2.851.829-.055.19-2.851-.829zM159.362 100.791l-.073-1.876-.017-2.067 2.937-.177.018 2.067c.024.625-.007 1.441.017 2.066l-2.882-.013zM158.483 108.781c.166-.571.197-1.386.363-1.956l.086-1.006.031-.815 3.017.258-.087 1.006-.086 1.005c-.165.57-.196 1.386-.362 1.956l-2.962-.448z" fill="#917C24"/><path d="M149.49 120.163c11.086-19.601 4.183-44.477-15.418-55.562-19.6-11.086-44.476-4.183-55.562 15.418-11.085 19.6-4.182 44.476 15.418 55.562 19.601 11.085 44.477 4.182 55.562-15.418z" stroke="#A9983F" stroke-width=".202" stroke-miterlimit="10" stroke-linecap="square" stroke-dasharray="0.74 0.74"/></g><path opacity=".22" d="m132.832 117.609-5.675 10.306-38.964-11.324 7.208-12.746-6.555.569 4.522-7.755 6.61-.759 13.595-24.082 15.965 4.64-9.975 17.301 8.732-.966-4.331 7.811-8.732.966-5.398 9.356 22.998 6.683z" stroke="#C5B058" stroke-width=".4" stroke-miterlimit="10"/></g></g><defs><radialGradient id="n" cx="0" cy="0" r="1" gradientUnits="userSpaceOnUse" gradientTransform="rotate(-17.315 549.385 -2902.008) scale(43.1555)"><stop stop-color="#A9983F" stop-opacity=".6"/><stop offset=".529" stop-color="#615730" stop-opacity=".826"/><stop offset=".937" stop-color="#2D2926"/></radialGradient><radialGradient id="b" cx="0" cy="0" r="1" gradientUnits="userSpaceOnUse" gradientTransform="matrix(0 183 -183 0 1224 127)"><stop stop-color="#C5B058" stop-opacity=".49"/><stop offset="1" stop-color="#292421" stop-opacity="0"/></radialGradient><radialGradient id="d" cx="0" cy="0" r="1" gradientUnits="userSpaceOnUse" gradientTransform="rotate(90 455 383.5) scale(226.5)"><stop stop-color="#C5B058" stop-opacity=".49"/><stop offset="1" stop-color="#292421" stop-opacity="0"/></radialGradient><radialGradient id="e" cx="0" cy="0" r="1" gradientUnits="userSpaceOnUse" gradientTransform="matrix(0 183 -183 0 19 135)"><stop stop-color="#C5B058" stop-opacity=".49"/><stop offset="1" stop-color="#292421" stop-opacity="0"/></radialGradient><radialGradient id="f" cx="0" cy="0" r="1" gradientUnits="userSpaceOnUse" gradientTransform="matrix(0 365 -365 0 1274 31)"><stop stop-color="#282420"/><stop offset=".932" stop-color="#282420" stop-opacity="0"/></radialGradient><radialGradient id="h" cx="0" cy="0" r="1" gradientUnits="userSpaceOnUse" gradientTransform="rotate(-20.821 86.435 -95.882) scale(27.2372)"><stop stop-color="#A9983F"/><stop offset=".937" stop-color="#2D2926"/></radialGradient><radialGradient id="j" cx="0" cy="0" r="1" gradientUnits="userSpaceOnUse" gradientTransform="rotate(15 328.655 4313.29) scale(94.3288)"><stop stop-color="#A9983F"/><stop offset=".937" stop-color="#2D2926"/></radialGradient><radialGradient id="l" cx="0" cy="0" r="1" gradientUnits="userSpaceOnUse" gradientTransform="rotate(-19.301 662.398 -3901.3) scale(46.8697)"><stop stop-color="#A9983F"/><stop offset=".937" stop-color="#2D2926"/></radialGradient><radialGradient id="c" cx="0" cy="0" r="1" gradientUnits="userSpaceOnUse" gradientTransform="matrix(0 365 -365 0 653 157)"><stop stop-color="#24201D" stop-opacity=".79"/><stop offset=".932" stop-color="#302C27" stop-opacity="0"/></radialGradient><radialGradient id="p" cx="0" cy="0" r="1" gradientUnits="userSpaceOnUse" gradientTransform="rotate(16.205 -197.985 464.423) scale(52.3149)"><stop stop-color="#A9983F" stop-opacity=".4"/><stop offset=".937" stop-color="#2D2926"/></radialGradient><radialGradient id="q" cx="0" cy="0" r="1" gradientUnits="userSpaceOnUse" gradientTransform="rotate(16.205 -294.383 450.7) scale(53.3047)"><stop stop-color="#A9983F"/><stop offset=".937" stop-color="#2D2926"/></radialGradient><clipPath id="a"><path d="M0 0h1440v128H0V0z" fill="#fff"/></clipPath><clipPath id="g"><path transform="rotate(-20.82 9 21.743)" fill="#fff" d="M9 21.743h55.545v55.545H9z"/></clipPath><clipPath id="i"><path transform="rotate(15 1046.79 -8)" fill="#fff" d="M1046.79-8h192.365v192.365H1046.79z"/></clipPath><clipPath id="k"><path transform="rotate(-19.301 1274 -6.407)" fill="#fff" d="M1274-6.407h95.581v95.581H1274z"/></clipPath><clipPath id="m"><path transform="rotate(-17.315 840.667 24.93)" fill="#fff" d="M840.667 24.931h87.239v87.239h-87.239z"/></clipPath><clipPath id="o"><path transform="rotate(16.205 77.774 34)" fill="#fff" d="M77.774 34H184.46v106.686H77.774z"/></clipPath></defs></svg>