<svg xmlns="http://www.w3.org/2000/svg" width="16" height="16" viewBox="0 0 16 16" fill="none">
    <path fill-rule="evenodd" clip-rule="evenodd" d="M8.66481 7.11777C8.98044 6.90418 9.18791 6.54283 9.18791 6.13302C9.18791 5.4768 8.65594 4.94482 7.99972 4.94482C7.3435 4.94482 6.81152 5.4768 6.81152 6.13302C6.81152 6.54287 7.01904 6.90426 7.33473 7.11784V9.25987C7.33473 9.62716 7.63248 9.92491 7.99977 9.92491C8.36706 9.92491 8.66481 9.62716 8.66481 9.25987V7.11777Z" fill="#F7A600"/>
    <path d="M13.155 2.25405C13.0856 2.19792 13.0045 2.15806 12.9177 2.13738C12.8309 2.11671 12.7405 2.11576 12.6533 2.1346C12.015 2.26835 11.3562 2.27006 10.7173 2.13961C10.0784 2.00915 8.87564 1.7493 8.34093 1.37606C8.24095 1.3067 8.12217 1.26953 8.00048 1.26953C7.8788 1.26953 7.76002 1.3067 7.66004 1.37606C7.12533 1.7493 5.92261 2.00915 5.2837 2.13961C4.64479 2.27006 3.98593 2.26835 3.34771 2.1346C3.26047 2.11576 3.17012 2.11671 3.08329 2.13738C2.99647 2.15806 2.91538 2.19792 2.846 2.25405C2.7767 2.31027 2.72088 2.3813 2.68264 2.46192C2.64439 2.54253 2.6247 2.6307 2.625 2.71993V7.88636C2.62447 8.74271 2.82854 9.58679 3.22021 10.3483C3.61188 11.1098 4.17982 11.7668 4.87673 12.2644L7.65406 13.8173C7.75522 13.8893 7.87631 13.928 8.00048 13.928C8.12466 13.928 8.24575 13.8893 8.3469 13.8173L11.1242 12.2644C11.8211 11.7668 12.3891 11.1098 12.7808 10.3483C13.1724 9.58679 13.3765 8.74271 13.376 7.88636V2.71993C13.3763 2.6307 13.3566 2.54253 13.3183 2.46192C13.2801 2.3813 13.2243 2.31027 13.155 2.25405Z" stroke="#121214" stroke-width="1.33"/>
</svg>