<svg xmlns="http://www.w3.org/2000/svg" width="20" height="20" viewBox="0 0 20 20" fill="none">
    <path d="M18.8353 8.33647C18.8005 8.14428 18.6994 7.9704 18.5496 7.84516C18.3997 7.71992 18.2107 7.65129 18.0154 7.65124H10.1667C10.0572 7.65121 9.94887 7.67275 9.84775 7.71462C9.74663 7.75649 9.65475 7.81787 9.57737 7.89526C9.49998 7.97264 9.4386 8.06452 9.39673 8.16564C9.35486 8.26676 9.33332 8.37513 9.33335 8.48457V11.708C9.33332 11.8175 9.35486 11.9259 9.39673 12.027C9.4386 12.1281 9.49998 12.22 9.57737 12.2974C9.65475 12.3747 9.74663 12.4361 9.84775 12.478C9.94887 12.5199 10.0572 12.5414 10.1667 12.5414H13.4687C13.2334 12.9385 12.9109 13.2769 12.5255 13.531C11.8212 13.9775 11.0004 14.2052 10.1667 14.1853C9.30208 14.1754 8.46258 13.8932 7.7675 13.3789C7.07242 12.8646 6.55712 12.1443 6.29482 11.3204L6.29458 11.319C6.00269 10.4635 6.00269 9.53538 6.29458 8.67987L6.29478 8.6785C6.55726 7.85475 7.07264 7.13466 7.76771 6.62053C8.46278 6.1064 9.30219 5.82436 10.1667 5.81449C10.647 5.80347 11.1248 5.88744 11.5726 6.06159C12.0204 6.23574 12.4294 6.49664 12.7761 6.8293C12.9336 6.97977 13.1437 7.06265 13.3614 7.06021C13.5792 7.05778 13.7874 6.97023 13.9415 6.81628L16.3316 4.42614C16.4108 4.34706 16.4732 4.25283 16.5152 4.14907C16.5571 4.04532 16.5777 3.93418 16.5757 3.82228C16.5738 3.71039 16.5493 3.60004 16.5037 3.49783C16.4581 3.39562 16.3924 3.30365 16.3104 3.22742C14.6472 1.668 12.4465 0.810384 10.1667 0.833208C8.46663 0.828178 6.79898 1.29822 5.35179 2.19032C3.9046 3.08243 2.73544 4.36112 1.97613 5.88219L1.97491 5.88367C1.33118 7.16013 0.997199 8.57028 1.00002 9.99987C1.00205 11.4289 1.33578 12.838 1.97495 14.1161L1.97618 14.1176C2.73547 15.6386 3.90463 16.9173 5.35182 17.8094C6.799 18.7015 8.46664 19.1716 10.1667 19.1665C12.4045 19.2232 14.5793 18.4221 16.2456 16.9274L16.2462 16.927L16.2469 16.9263L16.247 16.9261L16.2471 16.926C17.1503 16.0572 17.8617 15.009 18.3359 13.8489C18.81 12.6887 19.0362 11.4423 19.0001 10.1895C19.0005 9.56814 18.9453 8.948 18.8353 8.33647ZM10.1667 2.49987C11.7259 2.4847 13.2483 2.97366 14.5071 3.89392L13.2957 5.10487C12.3772 4.46909 11.2837 4.13463 10.1667 4.14782C9.14687 4.15307 8.14688 4.42998 7.26963 4.95006C6.39238 5.47014 5.66957 6.2146 5.17559 7.10681L4.28458 6.41619L3.79708 6.03813C4.46773 4.953 5.40541 4.05796 6.52055 3.43851C7.63569 2.81905 8.89105 2.49589 10.1667 2.49987ZM3.06622 12.4193C2.53345 10.8503 2.53345 9.1494 3.06622 7.58044L4.55141 8.73197C4.36152 9.56631 4.36152 10.4326 4.55141 11.267L3.06622 12.4193ZM10.1667 17.4999C8.89103 17.5038 7.63566 17.1806 6.5205 16.5612C5.40535 15.9417 4.46766 15.0466 3.79702 13.9615L4.11236 13.7169L5.17559 12.8921C5.66935 13.7846 6.39209 14.5293 7.26937 15.0495C8.14665 15.5698 9.14676 15.8467 10.1667 15.8519C11.1214 15.8632 12.0653 15.6488 12.9215 15.2263L14.3312 16.3207C13.0913 17.1196 11.6413 17.5301 10.1667 17.4999ZM15.6049 15.1993L15.4524 15.0809L14.3046 14.1899C14.9065 13.5396 15.311 12.7317 15.471 11.8603C15.4934 11.74 15.489 11.6162 15.4581 11.4978C15.4273 11.3794 15.3707 11.2693 15.2925 11.1752C15.2143 11.0811 15.1163 11.0054 15.0055 10.9535C14.8947 10.9016 14.7739 10.8747 14.6515 10.8748H11V9.31791H17.2907C17.3192 9.60599 17.3334 9.89733 17.3334 10.1895C17.3822 12.0135 16.768 13.7934 15.6049 15.1993H15.6049Z" fill="#121214"/>
</svg>