<svg xmlns="http://www.w3.org/2000/svg" width="20" height="20" viewBox="0 0 20 20" fill="none">
    <path d="M10 0.625C8.17824 0.628458 6.3968 1.16116 4.87266 2.15822C3.34853 3.15528 2.14749 4.57366 1.41583 6.2406C0.684168 7.90754 0.45347 9.7511 0.751834 11.5467C1.0502 13.3423 1.86475 15.0125 3.09626 16.3538C3.97583 17.3064 5.04334 18.0666 6.23153 18.5866C7.41972 19.1066 8.70283 19.375 10 19.375C11.2972 19.375 12.5803 19.1066 13.7685 18.5866C14.9567 18.0666 16.0242 17.3064 16.9037 16.3538C18.1353 15.0125 18.9498 13.3423 19.2482 11.5467C19.5465 9.7511 19.3158 7.90754 18.5842 6.2406C17.8525 4.57366 16.6515 3.15528 15.1273 2.15822C13.6032 1.16116 11.8218 0.628458 10 0.625ZM10 17.5175C8.05424 17.5145 6.18549 16.7576 4.78697 15.4059C5.21157 14.3732 5.93387 13.4899 6.86209 12.8682C7.79031 12.2466 8.88254 11.9146 10 11.9146C11.1175 11.9146 12.2097 12.2466 13.1379 12.8682C14.0661 13.4899 14.7884 14.3732 15.213 15.4059C13.8145 16.7576 11.9458 17.5145 10 17.5175ZM8.12143 8.13278C8.12143 7.76155 8.23161 7.39867 8.43803 7.09C8.64445 6.78134 8.93784 6.54077 9.2811 6.39871C9.62437 6.25665 10.0021 6.21948 10.3665 6.2919C10.7309 6.36432 11.0656 6.54308 11.3283 6.80558C11.5911 7.06807 11.77 7.40251 11.8425 7.76661C11.915 8.1307 11.8778 8.50809 11.7356 8.85105C11.5934 9.19402 11.3526 9.48716 11.0437 9.6934C10.7347 9.89964 10.3715 10.0097 10 10.0097C9.50177 10.0097 9.02395 9.81197 8.67165 9.45998C8.31935 9.10798 8.12143 8.63058 8.12143 8.13278ZM16.4905 13.7636C15.6512 12.3294 14.3596 11.2138 12.8179 10.5916C13.2961 10.0498 13.6077 9.38156 13.7153 8.66718C13.8229 7.9528 13.7219 7.22257 13.4244 6.56412C13.1269 5.90567 12.6456 5.34698 12.0382 4.95508C11.4307 4.56318 10.7231 4.35472 10 4.35472C9.27695 4.35472 8.56925 4.56318 7.96184 4.95508C7.35443 5.34698 6.87309 5.90567 6.5756 6.56412C6.27811 7.22257 6.1771 7.9528 6.28469 8.66718C6.39228 9.38156 6.70389 10.0498 7.18215 10.5916C5.64041 11.2138 4.34877 12.3294 3.50955 13.7636C2.84072 12.6253 2.48734 11.3297 2.48573 10.0097C2.48573 8.01854 3.27741 6.1089 4.68661 4.70092C6.09581 3.29294 8.00709 2.50194 10 2.50194C11.9929 2.50194 13.9042 3.29294 15.3134 4.70092C16.7226 6.1089 17.5143 8.01854 17.5143 10.0097C17.5127 11.3297 17.1593 12.6253 16.4905 13.7636Z" fill="#121214"/>
    <path fill-rule="evenodd" clip-rule="evenodd" d="M10 17.5C14.1421 17.5 17.5 14.1422 17.5 10C17.5 5.85788 14.1421 2.5 10 2.5C5.85786 2.5 2.5 5.85788 2.5 10C2.5 14.1422 5.85786 17.5 10 17.5ZM10 19.375C15.1777 19.375 19.375 15.1777 19.375 10C19.375 4.82234 15.1777 0.625 10 0.625C4.82233 0.625 0.625 4.82234 0.625 10C0.625 15.1777 4.82233 19.375 10 19.375Z" fill="#121214"/>
</svg>