<svg xmlns="http://www.w3.org/2000/svg" width="100" height="74" viewBox="0 0 100 74" fill="none">
    <g clip-path="url(#clip0_17012_231943)">
        <path d="M79.6616 10.0405C79.9766 10.2088 80.3153 10.5473 80.6848 11.1397C80.9944 11.7541 81.0697 12.3606 80.8697 12.9798C80.6679 13.6042 80.1814 14.2566 79.3368 14.9476C78.6234 15.4159 77.8162 15.7002 77.0849 15.7518C76.3503 15.8037 75.7097 15.6206 75.3045 15.177C74.8936 14.7271 74.6896 14.3418 74.626 14.0049C74.5631 13.6718 74.6348 13.372 74.8036 13.0843C74.9744 12.7933 75.2439 12.5162 75.5733 12.2365C75.8396 12.0104 76.1386 11.7878 76.4485 11.5571C76.5219 11.5024 76.596 11.4473 76.6704 11.3916C76.8651 11.2456 77.0534 11.0949 77.2355 10.9488L77.261 10.9283C77.4345 10.7891 77.602 10.6546 77.7664 10.5306C78.113 10.2693 78.4346 10.0636 78.7475 9.9651C79.0542 9.86857 79.3518 9.87514 79.6616 10.0405Z" fill="#F8AA0A" stroke="black" stroke-width="0.255007"/>
        <g filter="url(#filter0_i_17012_231943)">
            <ellipse cx="77.5497" cy="12.5049" rx="3.49001" ry="2.34994" transform="rotate(-36.8475 77.5497 12.5049)" fill="url(#paint0_linear_17012_231943)"/>
        </g>
        <path d="M80.2405 10.4884C80.5965 10.9635 80.6419 11.6198 80.4006 12.3127C80.1596 13.0048 79.6362 13.7185 78.8825 14.2833C78.1288 14.8481 77.2968 15.1502 76.5649 15.1872C75.8321 15.2242 75.2149 14.9964 74.8589 14.5213C74.5029 14.0463 74.4575 13.3899 74.6988 12.697C74.9398 12.005 75.4633 11.2912 76.2169 10.7264C76.9706 10.1616 77.8027 9.85958 78.5345 9.82258C79.2673 9.78554 79.8845 10.0134 80.2405 10.4884Z" stroke="black" stroke-width="0.255007"/>
        <g filter="url(#filter1_i_17012_231943)">
            <ellipse cx="77.5011" cy="12.3977" rx="2.77155" ry="1.86618" transform="rotate(-36.8475 77.5011 12.3977)" fill="url(#paint1_linear_17012_231943)"/>
        </g>
        <path d="M79.6169 10.8121C79.8928 11.1803 79.93 11.6916 79.7403 12.2365C79.5509 12.7805 79.1386 13.3432 78.5437 13.7891C77.9488 14.2349 77.293 14.4725 76.7177 14.5016C76.1415 14.5307 75.6611 14.3515 75.3852 13.9833C75.1093 13.6152 75.0721 13.1038 75.2619 12.5589C75.4513 12.0149 75.8635 11.4522 76.4584 11.0064C77.0533 10.5606 77.7092 10.3229 78.2845 10.2938C78.8607 10.2647 79.3411 10.444 79.6169 10.8121Z" stroke="black" stroke-width="0.255007"/>
        <path d="M23.5281 49.0818C22.7228 50.0685 22.345 51.1333 22.4587 52.3308C22.5734 53.5391 23.1914 54.914 24.4441 56.5045C25.5479 57.6378 26.8948 58.4755 28.1967 58.8616C29.5048 59.2495 30.7338 59.1738 31.6406 58.5363C32.5648 57.8865 33.0865 57.2721 33.3353 56.6908C33.5811 56.1167 33.5718 55.5489 33.3823 54.9629C33.1903 54.3693 32.8143 53.7605 32.3296 53.1217C31.9378 52.6053 31.4854 52.0822 31.016 51.5394C30.9047 51.4107 30.7924 51.2809 30.6798 51.1498C30.385 50.8067 30.1038 50.4576 29.8324 50.1196L29.7944 50.0723C29.5356 49.75 29.286 49.4391 29.0377 49.1484C28.5143 48.5356 28.0154 48.0355 27.4903 47.733C26.9764 47.4368 26.4391 47.3304 25.8163 47.5046C25.182 47.682 24.4346 48.1572 23.5281 49.0818Z" fill="#F8AA0A" stroke="black" stroke-width="0.510015"/>
        <g filter="url(#filter2_i_17012_231943)">
            <ellipse cx="6.48242" cy="4.36483" rx="6.48242" ry="4.36483" transform="matrix(-0.651712 -0.758466 -0.758466 0.651712 36.1836 54.8784)" fill="url(#paint2_linear_17012_231943)"/>
        </g>
        <path d="M24.5899 48.083C23.7596 48.7965 23.4144 49.9618 23.5734 51.3113C23.7321 52.659 24.3931 54.1603 25.5312 55.4848C26.6692 56.8092 28.0539 57.6887 29.3623 58.0485C30.6726 58.4088 31.8765 58.243 32.7068 57.5296C33.5371 56.8162 33.8823 55.6509 33.7233 54.3013C33.5646 52.9537 32.9036 51.4524 31.7655 50.1279C30.6275 48.8035 29.2428 47.9239 27.9344 47.5641C26.6241 47.2038 25.4202 47.3696 24.5899 48.083Z" stroke="black" stroke-width="0.510015"/>
        <g filter="url(#filter3_i_17012_231943)">
            <ellipse cx="5.14793" cy="3.46628" rx="5.14793" ry="3.46628" transform="matrix(-0.651712 -0.758466 -0.758466 0.651712 34.7666 54.2812)" fill="url(#paint3_linear_17012_231943)"/>
        </g>
        <path d="M25.5938 48.9246C24.9517 49.4763 24.6796 50.3819 24.8045 51.4423C24.9292 52.5009 25.4491 53.6836 26.3469 54.7286C27.2448 55.7735 28.3358 56.4655 29.3635 56.7481C30.393 57.0312 31.3293 56.8986 31.9714 56.3468C32.6135 55.7951 32.8856 54.8895 32.7607 53.8291C32.636 52.7706 32.1161 51.5879 31.2182 50.5429C30.3203 49.4979 29.2294 48.8059 28.2017 48.5233C27.1721 48.2402 26.2359 48.3729 25.5938 48.9246Z" stroke="black" stroke-width="0.510015"/>
        <path d="M43.3213 68.6498L64.3517 68.6498C65.4784 68.6498 66.3918 67.7364 66.3918 66.6097L66.3918 2.0404C66.3918 0.913707 65.4784 0.000336281 64.3517 0.000337518L43.1235 0.000341189C41.9943 0.000345708 41.08 0.917523 41.0834 2.04665L41.2812 66.616C41.2847 67.7402 42.197 68.6498 43.3213 68.6498Z" fill="url(#paint4_linear_17012_231943)"/>
        <path d="M32.3695 25.6L53.5929 14.4298L74.8162 25.6C74.7316 39.3552 67.0784 51.9552 54.8949 58.3675L53.5929 59.0528L52.2909 58.3675C40.1074 51.9552 32.4542 39.3552 32.3695 25.6Z" fill="url(#paint5_linear_17012_231943)" stroke="black" stroke-width="0.765022"/>
        <g filter="url(#filter4_ii_17012_231943)">
            <path d="M53.5929 6.32178L75.1995 17.6937V20.5697C75.1995 35.5852 66.8804 49.3646 53.5929 56.358C40.3054 49.3646 31.9863 35.5852 31.9863 20.5697V17.6937L53.5929 6.32178Z" fill="url(#paint6_linear_17012_231943)"/>
        </g>
        <path d="M32.3688 17.9246L53.5929 6.75403L74.8169 17.9246V20.5697C74.8169 35.3759 66.6508 48.9689 53.5929 55.9252C40.5349 48.9689 32.3688 35.3759 32.3688 20.5697V17.9246Z" stroke="black" stroke-width="0.765022"/>
        <path d="M35.3683 20.3673L53.3083 10.8749L71.2483 20.3673V22.7343C71.2483 35.2586 64.3487 46.7601 53.3083 52.6579C42.2679 46.7601 35.3683 35.2586 35.3683 22.7343V20.3673Z" stroke="black" stroke-width="0.510015"/>
        <path fill-rule="evenodd" clip-rule="evenodd" d="M53.6094 29.7548C56.0505 29.7548 58.0295 27.7916 58.0295 25.3699C58.0295 22.9481 56.0505 20.9849 53.6094 20.9849C51.1682 20.9849 49.1892 22.9481 49.1892 25.3699C49.1892 27.7916 51.1682 29.7548 53.6094 29.7548ZM53.6094 30.5822C49.5784 30.5822 46.2734 33.6662 45.9609 37.5855C48.229 38.8678 50.8538 39.6004 53.6511 39.6004C56.4156 39.6004 59.0117 38.8849 61.2614 37.6303C60.9707 33.6897 57.6559 30.5822 53.6094 30.5822Z" fill="#121214"/>
    </g>
    <defs>
        <filter id="filter0_i_17012_231943" x="74.4209" y="9.69141" width="6.25781" height="5.62695" filterUnits="userSpaceOnUse" color-interpolation-filters="sRGB">
            <feFlood flood-opacity="0" result="BackgroundImageFix"/>
            <feBlend mode="normal" in="SourceGraphic" in2="BackgroundImageFix" result="shape"/>
            <feColorMatrix in="SourceAlpha" type="matrix" values="0 0 0 0 0 0 0 0 0 0 0 0 0 0 0 0 0 0 127 0" result="hardAlpha"/>
            <feOffset dx="0.700238" dy="0.700238"/>
            <feComposite in2="hardAlpha" operator="arithmetic" k2="-1" k3="1"/>
            <feColorMatrix type="matrix" values="0 0 0 0 1 0 0 0 0 0.910275 0 0 0 0 0.725 0 0 0 1 0"/>
            <feBlend mode="normal" in2="shape" result="effect1_innerShadow_17012_231943"/>
        </filter>
        <filter id="filter1_i_17012_231943" x="75.0166" y="10.1631" width="4.96973" height="4.46924" filterUnits="userSpaceOnUse" color-interpolation-filters="sRGB">
            <feFlood flood-opacity="0" result="BackgroundImageFix"/>
            <feBlend mode="normal" in="SourceGraphic" in2="BackgroundImageFix" result="shape"/>
            <feColorMatrix in="SourceAlpha" type="matrix" values="0 0 0 0 0 0 0 0 0 0 0 0 0 0 0 0 0 0 127 0" result="hardAlpha"/>
            <feOffset dx="0.700238" dy="0.700238"/>
            <feComposite in2="hardAlpha" operator="arithmetic" k2="-1" k3="1"/>
            <feColorMatrix type="matrix" values="0 0 0 0 1 0 0 0 0 0.910275 0 0 0 0 0.725 0 0 0 1 0"/>
            <feBlend mode="normal" in2="shape" result="effect1_innerShadow_17012_231943"/>
        </filter>
        <filter id="filter2_i_17012_231943" x="23.2812" y="47.125" width="10.7344" height="11.3628" filterUnits="userSpaceOnUse" color-interpolation-filters="sRGB">
            <feFlood flood-opacity="0" result="BackgroundImageFix"/>
            <feBlend mode="normal" in="SourceGraphic" in2="BackgroundImageFix" result="shape"/>
            <feColorMatrix in="SourceAlpha" type="matrix" values="0 0 0 0 0 0 0 0 0 0 0 0 0 0 0 0 0 0 127 0" result="hardAlpha"/>
            <feOffset dx="1.1744" dy="1.1744"/>
            <feComposite in2="hardAlpha" operator="arithmetic" k2="-1" k3="1"/>
            <feColorMatrix type="matrix" values="0 0 0 0 1 0 0 0 0 0.910275 0 0 0 0 0.725 0 0 0 1 0"/>
            <feBlend mode="normal" in2="shape" result="effect1_innerShadow_17012_231943"/>
        </filter>
        <filter id="filter3_i_17012_231943" x="24.5205" y="48.124" width="8.52441" height="9.02344" filterUnits="userSpaceOnUse" color-interpolation-filters="sRGB">
            <feFlood flood-opacity="0" result="BackgroundImageFix"/>
            <feBlend mode="normal" in="SourceGraphic" in2="BackgroundImageFix" result="shape"/>
            <feColorMatrix in="SourceAlpha" type="matrix" values="0 0 0 0 0 0 0 0 0 0 0 0 0 0 0 0 0 0 127 0" result="hardAlpha"/>
            <feOffset dx="1.1744" dy="1.1744"/>
            <feComposite in2="hardAlpha" operator="arithmetic" k2="-1" k3="1"/>
            <feColorMatrix type="matrix" values="0 0 0 0 1 0 0 0 0 0.910275 0 0 0 0 0.725 0 0 0 1 0"/>
            <feBlend mode="normal" in2="shape" result="effect1_innerShadow_17012_231943"/>
        </filter>
        <filter id="filter4_ii_17012_231943" x="31.9863" y="6.32178" width="43.2129" height="50.0361" filterUnits="userSpaceOnUse" color-interpolation-filters="sRGB">
            <feFlood flood-opacity="0" result="BackgroundImageFix"/>
            <feBlend mode="normal" in="SourceGraphic" in2="BackgroundImageFix" result="shape"/>
            <feColorMatrix in="SourceAlpha" type="matrix" values="0 0 0 0 0 0 0 0 0 0 0 0 0 0 0 0 0 0 127 0" result="hardAlpha"/>
            <feOffset dx="1.53004" dy="1.53004"/>
            <feComposite in2="hardAlpha" operator="arithmetic" k2="-1" k3="1"/>
            <feColorMatrix type="matrix" values="0 0 0 0 1 0 0 0 0 0.910275 0 0 0 0 0.725 0 0 0 1 0"/>
            <feBlend mode="normal" in2="shape" result="effect1_innerShadow_17012_231943"/>
            <feColorMatrix in="SourceAlpha" type="matrix" values="0 0 0 0 0 0 0 0 0 0 0 0 0 0 0 0 0 0 127 0" result="hardAlpha"/>
            <feOffset dx="-2.28232" dy="-2.28232"/>
            <feComposite in2="hardAlpha" operator="arithmetic" k2="-1" k3="1"/>
            <feColorMatrix type="matrix" values="0 0 0 0 0.641667 0 0 0 0 0.399635 0 0 0 0 0 0 0 0 1 0"/>
            <feBlend mode="normal" in2="effect1_innerShadow_17012_231943" result="effect2_innerShadow_17012_231943"/>
        </filter>
        <linearGradient id="paint0_linear_17012_231943" x1="76.2542" y1="8.66209" x2="77.5497" y2="14.8548" gradientUnits="userSpaceOnUse">
            <stop offset="0.0856701" stop-color="#FFCA5F"/>
            <stop offset="1" stop-color="#F7A601"/>
        </linearGradient>
        <linearGradient id="paint1_linear_17012_231943" x1="76.4723" y1="9.34602" x2="77.5011" y2="14.2639" gradientUnits="userSpaceOnUse">
            <stop offset="0.0856701" stop-color="#FFCA5F"/>
            <stop offset="1" stop-color="#F79501"/>
        </linearGradient>
        <linearGradient id="paint2_linear_17012_231943" x1="4.07615" y1="-2.77284" x2="6.48242" y2="8.72966" gradientUnits="userSpaceOnUse">
            <stop offset="0.0856701" stop-color="#FFCA5F"/>
            <stop offset="1" stop-color="#F7A601"/>
        </linearGradient>
        <linearGradient id="paint3_linear_17012_231943" x1="3.23703" y1="-2.20202" x2="5.14793" y2="6.93255" gradientUnits="userSpaceOnUse">
            <stop offset="0.0856701" stop-color="#FFCA5F"/>
            <stop offset="1" stop-color="#F79501"/>
        </linearGradient>
        <linearGradient id="paint4_linear_17012_231943" x1="55.8644" y1="164.393" x2="84.2434" y2="-30.2257" gradientUnits="userSpaceOnUse">
            <stop stop-color="#F9AB0D"/>
            <stop offset="0.812757" stop-color="#F9AB0D" stop-opacity="0"/>
        </linearGradient>
        <linearGradient id="paint5_linear_17012_231943" x1="45.5726" y1="-1.70545" x2="63.6188" y2="54.2087" gradientUnits="userSpaceOnUse">
            <stop offset="0.0856701" stop-color="#FFCA5F"/>
            <stop offset="1" stop-color="#D78100"/>
        </linearGradient>
        <linearGradient id="paint6_linear_17012_231943" x1="45.5725" y1="-3.57787" x2="64.0549" y2="52.9366" gradientUnits="userSpaceOnUse">
            <stop offset="0.0856701" stop-color="#FFCA5F"/>
            <stop offset="1" stop-color="#F79501"/>
        </linearGradient>
        <clipPath id="clip0_17012_231943">
            <rect width="100" height="74" fill="white"/>
        </clipPath>
    </defs>
</svg>