<svg fill="none" viewBox="0 0 24 24" height="24" width="24" xmlns="http://www.w3.org/2000/svg" class="item-icon-img">
    <path xmlns="http://www.w3.org/2000/svg" d="M4.70728 6.05243L4.71772 6.0632L4.70728 6.05243C4.70149 6.05804 4.69581 6.0635 4.69026 6.06884C4.64061 6.11656 4.60066 6.15497 4.57061 6.21579C4.53729 6.28323 4.5165 6.37719 4.50366 6.54133C4.47925 6.85314 4.48316 7.42539 4.49096 8.56748C4.49137 8.62763 4.49179 8.68935 4.49222 8.75271C4.50821 11.1176 4.52093 11.3554 4.67734 12.1857C5.12241 14.5489 6.25926 16.7084 7.94672 18.396C8.9617 19.4111 10.0873 20.1902 11.4464 20.8183C11.634 20.9051 11.747 20.9544 11.8387 20.9818C11.9312 21.0096 12.0017 21.015 12.1042 21.015C12.2067 21.015 12.2777 21.0094 12.3718 20.9812C12.4652 20.9532 12.5813 20.903 12.7741 20.8148C16.7402 19.0015 19.3516 15.2589 19.6909 10.9024C19.7103 10.6518 19.7259 9.54178 19.7255 8.43596C19.7251 7.49489 19.7239 6.98956 19.7151 6.70306C19.7063 6.41693 19.6901 6.34669 19.6581 6.27768C19.6215 6.19863 19.5447 6.09012 19.4865 6.03553C19.4807 6.03009 19.4709 6.02356 19.4582 6.01612C19.4451 6.00846 19.428 5.99922 19.4067 5.98838C19.3643 5.96668 19.305 5.93831 19.2284 5.90307C19.0752 5.83257 18.8523 5.73434 18.5558 5.60664C17.9628 5.35124 17.0747 4.9778 15.859 4.47226C14.0616 3.72483 13.1295 3.33876 12.6176 3.14974C12.3618 3.0553 12.21 3.00965 12.107 2.99289C12.0554 2.98448 12.0156 2.98329 11.9811 2.98698C11.9465 2.99068 11.9176 2.99922 11.888 3.00953L11.888 3.00953C11.839 3.02656 10.2297 3.69282 8.31256 4.48966C6.94829 5.05673 6.07035 5.42508 5.52231 5.66248C5.24831 5.78117 5.05661 5.86719 4.92777 5.92899C4.86336 5.95988 4.81448 5.98481 4.77881 6.00479C4.74354 6.02455 4.71999 6.04012 4.70728 6.05243ZM15.2152 5.76322L18.2699 7.03468L18.2681 8.9963C18.2665 10.8613 18.262 10.9947 18.1873 11.4763C18.1438 11.7569 18.07 12.1528 18.0234 12.3557C17.321 15.4162 15.2721 17.9972 12.4541 19.371L12.1006 19.5433L11.6425 19.3117C8.79512 17.8719 6.76496 15.2281 6.13359 12.1378C5.95396 11.2585 5.93914 11.019 5.93882 8.96169L5.93851 7.03592L8.99321 5.76449C9.83578 5.4138 10.6077 5.09492 11.1726 4.86368C11.455 4.74806 11.6857 4.65435 11.8475 4.58954C11.9285 4.55713 11.9921 4.53196 12.0365 4.51489C12.0586 4.50636 12.0759 4.49988 12.088 4.49554L12.102 4.49075L12.1043 4.49008L12.1065 4.49071L12.1205 4.49543C12.1326 4.49972 12.1498 4.50615 12.172 4.51465C12.2163 4.53163 12.28 4.55671 12.3609 4.58905C12.5228 4.65371 12.7534 4.74728 13.0359 4.86278C13.6008 5.0938 14.3727 5.41253 15.2152 5.76322ZM14.5635 9.23149C14.5572 9.23423 14.5491 9.23934 14.5399 9.24589C14.5304 9.25262 14.519 9.26149 14.5056 9.27237C14.4788 9.29414 14.4439 9.32438 14.4013 9.36263C14.316 9.43914 14.1995 9.54809 14.055 9.68633C13.7661 9.96284 13.365 10.3568 12.8778 10.8433L11.3306 12.3885L10.557 11.6216C10.2387 11.3061 10.0345 11.1085 9.89283 10.9835C9.7514 10.8586 9.67106 10.8048 9.60051 10.7783C9.05403 10.5733 8.51994 11.0833 8.67332 11.6592C8.69299 11.733 8.73555 11.8047 8.88916 11.9752C9.04297 12.1459 9.30998 12.4174 9.7813 12.8911C10.0734 13.1847 10.3529 13.4603 10.5678 13.6677C10.6752 13.7714 10.7666 13.8582 10.8354 13.9216C10.8698 13.9534 10.8986 13.9793 10.9209 13.9987C10.943 14.0179 10.9596 14.0313 10.9693 14.0373C11.0514 14.0884 11.1768 14.1152 11.3033 14.1181C11.4299 14.1211 11.5607 14.1003 11.6542 14.0537C11.6602 14.0508 11.6688 14.0444 11.6792 14.036C11.69 14.0274 11.7037 14.0157 11.7202 14.0012C11.7532 13.9722 11.7977 13.9315 11.8522 13.8806C11.9612 13.7788 12.1106 13.6357 12.2897 13.4617C12.6479 13.1137 13.1249 12.6423 13.6341 12.1315C14.4891 11.2738 14.953 10.8061 15.2083 10.5337C15.4629 10.262 15.5123 10.1824 15.534 10.1015C15.6929 9.50857 15.1193 8.99225 14.5635 9.23149Z" fill="black" stroke="black" stroke-width="0.03"></path>
</svg>