<svg fill="none" viewBox="0 0 24 24" height="24" width="24" xmlns="http://www.w3.org/2000/svg" class="item-icon-img">
    <g xmlns="http://www.w3.org/2000/svg" clip-path="url(#clip0_37001_363967)">
        <path d="M7.96342 0.00318132C7.69487 0.0326372 7.4932 0.262466 7.49904 0.532661V2.61786C7.49904 3.2268 7.76923 3.7492 8.13451 4.13303C8.36015 4.37032 8.62419 4.55633 8.90017 4.70324C8.35016 5.38675 8.02032 6.24295 8.02032 7.17953V7.84759C7.0108 7.92359 6.1957 8.73474 6.1957 9.75367V12.2627C5.61823 12.0229 4.95381 11.7239 4.38741 11.3584C3.58647 10.8417 3.06769 10.2539 3.06769 9.65601V7.57063C3.07097 7.42044 3.00933 7.27625 2.89841 7.17479C2.78768 7.07333 2.63859 7.0246 2.4893 7.04115C2.22075 7.0706 2.01926 7.30043 2.0251 7.57063V9.65601C2.0251 10.8077 2.90024 11.6334 3.82519 12.23C4.63959 12.7552 5.53782 13.1313 6.19568 13.3949V14.8694H2.54643C2.53007 14.8684 2.51388 14.8684 2.49752 14.8694C2.35915 14.8757 2.22914 14.9368 2.13605 15.0392C2.04277 15.1415 1.99404 15.2768 2.00058 15.415C2.00695 15.5534 2.06822 15.6834 2.17059 15.7765C2.27296 15.8698 2.40806 15.9185 2.54643 15.9119H6.19567V17.1502C6.19567 17.312 6.20676 17.4722 6.22022 17.6308C5.56054 17.8946 4.64998 18.2717 3.8252 18.8037C2.90025 19.4005 2.02511 20.2341 2.02511 21.3861V23.4712C2.02311 23.6109 2.07711 23.7454 2.17512 23.8447C2.27312 23.9442 2.40677 24 2.54641 24C2.68587 24 2.81969 23.9442 2.9177 23.8447C3.01571 23.7454 3.06971 23.6109 3.06771 23.4712V21.3861C3.06771 20.788 3.58648 20.2002 4.38743 19.6834C5.02602 19.2716 5.78568 18.9441 6.40751 18.6897C7.10354 21.1539 9.43511 22.9499 12.1911 22.9499C14.947 22.9499 17.2787 21.1538 17.9746 18.6897C18.5964 18.9441 19.3561 19.2716 19.9947 19.6834C20.7956 20.2002 21.3144 20.788 21.3144 21.3861V23.4712C21.3124 23.6109 21.3664 23.7454 21.4644 23.8447C21.5624 23.9442 21.6963 24 21.8357 24C21.9754 24 22.109 23.9442 22.207 23.8447C22.305 23.7454 22.359 23.6109 22.357 23.4712V21.3861C22.357 20.2342 21.4819 19.4005 20.5569 18.8037C19.7321 18.2717 18.8216 17.8946 18.1619 17.6308C18.1754 17.4722 18.1864 17.312 18.1864 17.1502V15.9119H21.8357C21.9753 15.9139 22.1097 15.8599 22.2092 15.7619C22.3086 15.6639 22.3644 15.5301 22.3644 15.3906C22.3644 15.251 22.3086 15.1174 22.2092 15.0194C22.1097 14.9213 21.9753 14.8673 21.8357 14.8693H18.1864V13.3949C18.8443 13.1312 19.7425 12.7552 20.5569 12.2299C21.4819 11.6334 22.357 10.8077 22.357 9.656V7.57062C22.3603 7.42043 22.2987 7.27624 22.1879 7.17478C22.0772 7.07332 21.9281 7.02459 21.7788 7.04114C21.5101 7.07059 21.3086 7.30042 21.3144 7.57062V9.656C21.3144 10.2539 20.7957 10.8417 19.9947 11.3584C19.4283 11.7239 18.7639 12.0228 18.1864 12.2627V9.75366C18.1864 8.73468 17.3713 7.92359 16.3618 7.84758V7.17952C16.3618 6.24294 16.032 5.38669 15.482 4.70323C15.758 4.55632 16.022 4.37031 16.2476 4.13302C16.6129 3.74919 16.8831 3.22679 16.8831 2.61785V0.532652C16.8864 0.382461 16.8245 0.238275 16.7138 0.136815C16.6031 0.0353552 16.454 -0.0133756 16.3047 0.00317209C16.0361 0.0326279 15.8345 0.262457 15.8403 0.532652V2.61785C15.8403 2.93241 15.7194 3.18368 15.4983 3.41624C15.2843 3.64097 14.9759 3.82935 14.6673 3.93752C13.9729 3.4397 13.1165 3.13932 12.191 3.13932C11.2655 3.13932 10.4091 3.4397 9.71474 3.93752C9.40618 3.82934 9.0978 3.64096 8.88377 3.41624C8.66267 3.18368 8.54175 2.93237 8.54175 2.61785V0.532652C8.54484 0.382461 8.4832 0.238275 8.37247 0.136815C8.26174 0.0353552 8.11264 -0.0133756 7.96336 0.00317209L7.96342 0.00318132ZM12.1911 4.18191C13.943 4.18191 15.319 5.52015 15.319 7.17949V7.83115H9.06302V7.17949C9.06302 5.52015 10.4391 4.18191 12.191 4.18191H12.1911ZM8.17526 8.87392H11.6698L11.6616 21.8826C9.15259 21.6328 7.2385 19.6141 7.2385 17.1501V9.75367C7.2385 9.26399 7.63634 8.87401 8.17527 8.87401L8.17526 8.87392ZM12.7124 8.87392H16.2069C16.7459 8.87392 17.1437 9.26394 17.1437 9.75358V17.15C17.1437 19.6194 15.2214 21.6399 12.7042 21.8825L12.7124 8.87392Z" fill="black" stroke="black" stroke-width="0.2"></path>
    </g>
    <defs xmlns="http://www.w3.org/2000/svg">
        <clipPath id="clip0_37001_363967">
            <rect width="24" height="24" fill="white"></rect>
        </clipPath>
    </defs>
</svg>