<svg class="item-icon-img" role="img" fill="none" viewBox="0 0 16 17" height="17" width="16" xmlns="http://www.w3.org/2000/svg">
    <path xmlns="http://www.w3.org/2000/svg" fill-rule="evenodd" clip-rule="evenodd" d="M3.5 2.5A1.5 1.5 0 002 4v9a1.5 1.5 0 001.5 1.5h9A1.5 1.5 0 0014 13V6.5A1.5 1.5 0 0012.5 5H12V4a1.5 1.5 0 00-1.5-1.5h-7zm0 2.5a.5.5 0 01-.5-.5V4a.5.5 0 01.5-.5h7a.5.5 0 01.5.5v1H3.5zM6 6H3.5a.5.5 0 00-.5.5V13a.5.5 0 00.5.5h9a.5.5 0 00.5-.5v-1.5h-1.5a2 2 0 110-4H13v-1a.5.5 0 00-.5-.5H6zm5.5 2.5H13v2h-1.5a1 1 0 110-2z" fill="black"></path>
</svg>